<?xml version="1.0" encoding="UTF-8" standalone="no"?>
<svg width="233px" height="38px" viewBox="0 0 233 38" version="1.1" xmlns="http://www.w3.org/2000/svg" xmlns:xlink="http://www.w3.org/1999/xlink" xmlns:sketch="http://www.bohemiancoding.com/sketch/ns">
    <title>hydra-wordmark</title>
    <description>Created with Sketch (http://www.bohemiancoding.com/sketch)</description>
    <defs></defs>
    <g id="Page-1" stroke="none" stroke-width="1" fill="none" fill-rule="evenodd" sketch:type="MSPage">
        <g id="hydra-wordmark" sketch:type="MSLayerGroup" fill="#4c5ba7">
            <g id="Group" sketch:type="MSShapeGroup">
                <path d="M36.566,37.833 L36.566,21.741 L7.113,21.741 L7.113,37.833 L0,37.833 L0,0 L7.113,0 L7.113,15.356 L36.566,15.356 L36.566,0 L43.679,0 L43.679,37.833 L36.566,37.833 Z" id="Shape"></path>
                <path d="M224.517,37.833 L208.5,7.237 L192.502,37.833 L184.9,37.833 L204.747,0 L212.831,0 L232.695,37.833 L224.517,37.833 Z" id="Shape"></path>
                <path d="M88.615,37.833 L88.615,0 L116.283,0 C119.035,0 121.391,0.166 123.288,0.49 C125.261,0.827 126.93,1.354 128.248,2.061 C129.64,2.804 130.731,3.761 131.504,4.902 C132.237,5.979 132.771,7.277 133.119,8.748 C133.431,10.121 133.621,11.692 133.678,13.416 C133.729,15.072 133.755,16.899 133.755,18.915 C133.755,20.928 133.73,22.759 133.678,24.408 C133.621,26.141 133.43,27.707 133.119,29.08 C132.771,30.559 132.238,31.85 131.496,32.933 C130.731,34.071 129.64,35.022 128.248,35.769 C126.93,36.477 125.261,37.005 123.288,37.337 C121.386,37.661 119.028,37.832 116.283,37.832 L88.615,37.832 L88.615,37.833 Z M116.283,31.446 C118.17,31.446 119.787,31.391 121.089,31.297 C122.29,31.198 123.28,31.008 124.036,30.724 C124.657,30.489 125.118,30.17 125.439,29.75 C125.784,29.283 126.051,28.634 126.226,27.812 C126.428,26.863 126.553,25.67 126.59,24.266 C126.625,22.771 126.644,20.992 126.644,18.916 C126.644,16.844 126.625,15.059 126.59,13.568 C126.553,12.156 126.427,10.971 126.226,10.029 C126.051,9.204 125.784,8.545 125.434,8.072 C125.121,7.664 124.664,7.348 124.03,7.112 C123.28,6.825 122.297,6.635 121.097,6.542 C119.811,6.438 118.191,6.388 116.284,6.388 L95.733,6.388 L95.733,31.445 L116.283,31.445 L116.283,31.446 Z" id="Shape"></path>
                <path d="M174.173,37.833 L174.173,29.887 C174.173,28.843 174.155,27.947 174.119,27.204 C174.087,26.586 173.988,26.07 173.826,25.661 C173.704,25.361 173.519,25.122 173.261,24.939 C173.048,24.791 172.598,24.565 171.764,24.388 C170.982,24.219 169.948,24.107 168.663,24.034 C167.353,23.969 165.734,23.936 163.817,23.936 L145.459,23.936 L145.459,37.833 L138.341,37.833 L138.341,0 L164.549,0 C167.267,0 169.588,0.102 171.466,0.297 C173.413,0.497 174.989,0.796 176.287,1.21 C177.662,1.645 178.749,2.213 179.533,2.898 C180.335,3.594 180.943,4.448 181.323,5.421 C181.673,6.305 181.881,7.307 181.94,8.394 C181.991,9.366 182.023,10.431 182.023,11.606 C182.023,13.134 181.912,14.52 181.693,15.702 C181.452,16.973 181.039,18.083 180.463,18.996 C179.927,19.869 179.209,20.586 178.329,21.147 C179.093,21.695 179.704,22.385 180.139,23.203 C180.619,24.08 180.935,25.114 181.088,26.279 C181.222,27.336 181.287,28.514 181.287,29.886 L181.287,37.832 L174.173,37.832 L174.173,37.833 Z M164.549,17.554 C166.465,17.554 168.09,17.516 169.399,17.45 C170.638,17.394 171.684,17.266 172.5,17.103 C173.334,16.922 173.775,16.707 174,16.544 C174.253,16.364 174.435,16.133 174.555,15.831 C174.722,15.424 174.819,14.909 174.85,14.296 C174.887,13.537 174.908,12.641 174.908,11.608 C174.908,10.638 174.887,9.815 174.85,9.117 C174.826,8.57 174.734,8.132 174.58,7.803 C174.474,7.562 174.315,7.381 174.063,7.232 C173.847,7.103 173.392,6.907 172.529,6.74 C171.736,6.593 170.693,6.501 169.426,6.454 C168.098,6.412 166.474,6.39 164.549,6.39 L145.459,6.39 L145.459,17.555 L164.549,17.555 L164.549,17.554 Z" id="Shape"></path>
                <path d="M85.181,0 L77.576,0 L66.505,21.201 L55.409,0 L47.233,0 L62.153,28.422 L62.153,37.833 L70.268,37.833 L70.268,28.425 L85.181,0 Z" id="Shape"></path>
            </g>
        </g>
    </g>
</svg>