<svg width="59" height="47" viewBox="0 0 59 47" xmlns="http://www.w3.org/2000/svg"><title>2kgames</title><g fill="none" fill-rule="evenodd"><g fill="#F7F8F8"><g><g><path d="M57.437.178c.038.06.103.055.162.063.157.022.3.086.43.174.308.206.446.546.367.907-.024.11-.062.22-.097.326l-3.663 11.13-6.875 20.903-.105.32c-.085.263-.23.487-.428.676-.46.438-1.007.67-1.643.685-.053.002-.104 0-.157 0-13.217 0-26.433 0-39.65.002-.2 0-.398.003-.594-.053-.152-.044-.296-.102-.42-.2-.284-.23-.394-.52-.316-.88.022-.1.057-.2.094-.297l5.112-13.546 6.678-17.69c.144-.38.295-.76.432-1.144.126-.357.348-.64.648-.86.326-.242.682-.414 1.09-.458.05-.005.095-.037.142-.056 12.93-.002 25.86-.002 38.79-.002zM23.545 9.534l.203-.4c.42-.808 1.06-1.36 1.923-1.658.548-.188 1.114-.27 1.687-.294.46-.02.92-.01 1.38-.005.35.005.692.062 1.027.155.177.05.348.115.5.22.354.24.417.5.345.877-.012.058-.035.116-.057.172-.136.352-.366.627-.682.833-.303.196-.64.306-.99.376-.468.095-.936.186-1.403.28-.833.166-1.666.334-2.498.505-.833.17-1.667.334-2.494.525-1.076.247-2.12.59-3.132 1.036-1.396.615-2.66 1.427-3.764 2.484-1.162 1.113-2.057 2.417-2.747 3.866-.246.518-.464 1.048-.653 1.59-.027.076-.083.154-.028.26.116.003.237.008.357.008H26.49c.078 0 .156-.002.234 0 .05.003.098.013.165.02-.025.1-.044.184-.07.265l-3.26 10.193c-.21.653-.418 1.306-.625 1.96-.027.086-.08.172-.05.262.02.01.028.018.036.02.026.004.052.01.078.01h6.387c.052 0 .104-.003.156-.005.01 0 .018-.005.025-.01.008-.002.015-.006.046-.02.026-.072.062-.16.09-.25.18-.554.355-1.107.532-1.662.26-.81.52-1.62.775-2.43.038-.12.087-.218.197-.293.84-.57 1.676-1.15 2.515-1.725.046-.032.1-.05.168-.084.855 2.163 1.688 4.316 2.54 6.473.116.002.22.006.322.006h8.29c.07 0 .14.002.21-.002.038-.002.076-.016.137-.028-.044-.106-.077-.193-.117-.278l-3.036-6.46c-.54-1.146-1.08-2.293-1.617-3.44-.035-.076-.097-.147-.067-.258l.204-.14c2.51-1.7 5.02-3.4 7.527-5.102.562-.38 1.123-.76 1.683-1.142.06-.042.14-.07.163-.163-.11-.05-.226-.033-.336-.033h-8.055c-.113 0-.227.006-.34.003-.1-.002-.186.03-.263.092-.048.04-.098.072-.147.108l-5.395 3.97-2.205 1.62c-.05.038-.097.095-.188.083.013-.058.02-.108.036-.156l.356-1.116c.457-1.42.916-2.842 1.37-4.264.03-.096.09-.19.063-.312-.04-.008-.08-.023-.12-.024-.105-.004-.21-.004-.313-.004H21.32c-.094 0-.19 0-.286-.003-.042 0-.088-.003-.104-.068.073-.105.183-.175.288-.25.398-.29.845-.476 1.31-.624.623-.197 1.266-.298 1.905-.414.973-.176 1.946-.346 2.92-.518 1.092-.193 2.185-.382 3.276-.58 1-.183 1.973-.467 2.913-.86.796-.33 1.55-.743 2.23-1.278.64-.504 1.186-1.095 1.59-1.81.376-.665.6-1.38.7-2.14.052-.41.043-.813-.04-1.216-.14-.67-.485-1.22-.998-1.67-.33-.287-.7-.512-1.095-.698-.977-.46-2.017-.682-3.076-.832-.353-.05-.706-.086-1.06-.115-.494-.04-.988-.067-1.482-.096-.173-.01-.347-.01-.52-.014-.48-.008-.957-.028-1.435-.02-.546.012-1.093.047-1.64.078-.302.017-.606.035-.907.072-.516.064-1.03.14-1.542.24-1.042.208-2.053.508-3.02.95-1.25.567-2.35 1.34-3.27 2.365-.732.817-1.3 1.738-1.732 2.742-.028.065-.088.134-.023.242h7.322zM.812 44.55c.06-.056.092-.124.104-.205.054-.38.17-.745.304-1.103.33-.878.68-1.747 1.067-2.603.16-.357.344-.703.57-1.024.803-1.145 1.895-1.87 3.252-2.183.605-.14 1.224-.136 1.83.03.16.042.314.103.46.18.414.21.69.546.837.986.13.394.18 1.02-.018 1.61-.2.033-1.462.04-1.755.005v-.143c0-.13.01-.26-.008-.39-.062-.42-.3-.66-.717-.75-.376-.082-.743-.045-1.1.088-.496.185-.9.49-1.193.93-.13.195-.246.4-.346.61-.43.902-.803 1.828-1.134 2.77-.066.19-.122.383-.155.58-.024.15-.034.313-.005.464.06.316.27.517.576.61.255.08.516.08.775.04.732-.12 1.306-.496 1.737-1.095.195-.27.326-.573.44-.883.01-.022.002-.05.002-.085-.177-.032-.35-.014-.52-.017-.183-.003-.366 0-.548 0h-.54c.007-.054.003-.096.017-.13.166-.41.334-.82.503-1.23.016-.04.042-.074.06-.105.26-.032 3.19-.03 3.407.005-.01.04-.012.08-.027.118-.228.554-.447 1.11-.69 1.66-.133.3-.29.594-.463.872-.738 1.178-1.798 1.937-3.122 2.328-.57.17-1.16.21-1.753.13-.25-.033-.495-.1-.72-.213-.528-.263-.877-.672-1.013-1.252-.02-.077-.032-.153-.11-.195-.002-.137-.002-.275-.002-.414zM22.355 44.693c-.07-.276-.064-.555-.1-.828-.037-.284-.057-.57-.085-.855-.027-.276-.047-.554-.083-.83-.035-.272-.03-.55-.102-.834-.084.04-.095.11-.12.17l-.875 2.145c-.36.885-.72 1.77-1.083 2.652-.035.088-.074.173-.116.27h-1.737c.01-.057.01-.092.022-.122l3.67-9.006c.2-.043 1.402-.053 1.745-.018.012.053.033.11.038.167.042.555.08 1.11.12 1.663.044.562.09 1.126.133 1.688.03.363.05.728.08 1.09.006.093-.01.19.07.288.14-.13.252-.272.374-.406.122-.135.242-.272.363-.41.122-.135.243-.27.364-.407l.364-.41c.12-.137.243-.273.364-.41l.363-.408.364-.41c.122-.136.243-.27.364-.408.12-.137.242-.272.364-.41l.363-.407.364-.41c.12-.136.242-.27.357-.4.32-.03 1.535-.023 1.73.013-.007.033-.008.068-.02.1-1.226 3.004-2.45 6.01-3.673 9.005-.213.036-1.38.045-1.744.015-.028-.1.036-.18.07-.263.38-.94.765-1.88 1.15-2.82l.766-1.882c.032-.077.058-.157.095-.263-.116.037-.158.115-.213.175-.604.66-1.206 1.322-1.81 1.983-.327.36-.657.717-.98 1.08-.082.09-.166.138-.29.135-.288-.007-.574-.002-.86-.003-.048-.003-.1-.013-.162-.02zM38.224 39.007H34c-.294.688-.563 1.364-.836 2.04-.012.03-.01.064-.017.105.243.034.478.012.71.016.234.004.47 0 .704 0H35.994c.232.002.465 0 .715.003-.015.065-.02.108-.035.147-.193.474-.388.946-.575 1.404-.112.056-.21.036-.303.036-1.008.002-2.016 0-3.023 0h-.292c-.133.24-.21.487-.312.725-.105.25-.203.5-.305.75l-.3.736c.06.017.1.034.138.037.078.005.157.003.235.003h3.544c.09 0 .187-.02.285.032-.008.036-.01.07-.022.103-.19.475-.385.95-.574 1.415-.226.035-5.775.037-6.01.003.007-.033.007-.068.02-.1 1.225-3.005 2.45-6.01 3.68-9.02.068-.008.127-.02.186-.02h5.63c.058 0 .115.007.175.01-.024.185-.446 1.25-.626 1.58zM15.22 37.42c.47-.003.91-.003 1.368 0 .006.085.018.15.015.218-.02.556-.042 1.11-.066 1.666-.023.538-.053 1.076-.076 1.614-.025.616-.045 1.232-.072 1.85-.042.98-.088 1.96-.13 2.94-.01.19-.014.383-.02.573-.004.087-.012.173-.018.268-.04.012-.07.03-.1.03-.548.002-1.096 0-1.643 0-.024 0-.05-.012-.087-.022-.027-.172.012-.342.024-.512.012-.174.02-.348.033-.52.012-.174.025-.346.04-.527-.055-.015-.095-.034-.135-.034h-3.075c-.017 0-.034.008-.076.018-.387.52-.788 1.054-1.183 1.58-.25.032-1.597.03-1.8-.002-.002-.008-.008-.016-.008-.024s.002-.017.007-.024l.09-.127c2.3-2.987 4.605-5.97 6.914-8.964zm-2.88 6.02c.084.013.117.022.15.022h1.98c.048 0 .097-.016.142-.023.034-.204.242-2.963.237-3.154 0-.022-.015-.045-.026-.077-.028.018-.054.025-.067.043-.797 1.05-1.592 2.1-2.416 3.188zM37.22 45.47c.26-.218 1.422-1.034 1.593-1.123.016.007.037.01.046.02.26.355.624.546 1.045.63.57.115 1.14.12 1.704-.03.253-.067.488-.178.697-.34.338-.26.54-.608.622-1.022.062-.323-.073-.565-.386-.678-.138-.05-.284-.078-.43-.103-.436-.073-.874-.135-1.31-.213-.24-.042-.47-.13-.68-.254-.406-.24-.62-.594-.632-1.07-.007-.3.047-.587.143-.868.44-1.284 1.305-2.17 2.544-2.702.548-.234 1.123-.355 1.72-.366.453-.01.904.004 1.346.115.514.13.95.38 1.263.817.02.028.035.06.06.102-.033.034-.063.075-.103.104-.446.316-.894.63-1.342.945-.027.02-.06.035-.09.054-.025-.014-.053-.02-.067-.04-.235-.293-.55-.448-.912-.507-.432-.068-.866-.09-1.292.03-.535.146-.952.454-1.217.95-.08.145-.133.3-.14.47-.007.21.075.37.244.488.14.097.29.157.456.184.334.055.67.1 1.003.16.247.042.495.09.736.158.156.045.31.117.45.202.36.218.542.55.568.97.016.253-.017.5-.08.747-.303 1.15-.98 2.02-1.995 2.626-.698.416-1.456.646-2.266.714-.532.045-1.06.02-1.584-.064-.327-.054-.642-.152-.932-.317-.33-.19-.596-.445-.787-.79z"/></g></g></g></g></svg>