<svg width="133" height="32" viewBox="0 0 133 32" xmlns="http://www.w3.org/2000/svg"><title>activision</title><g fill="none" fill-rule="evenodd"><g fill="#F7F8F8"><g><path d="M.278 27.79h5.466l1.438-3.31 5.61.146 1.58 3.307h5.467L10.057.75.278 27.79zm8.343-8.343s1.152-5.035 1.294-4.602c.145.43 1.294 4.457 1.294 4.457l-2.587.145zM23.292 18.44c0-7.05 7.768-3.595 7.768-3.595l3.164-3.597c-2.733-2.59-6.904-2.445-6.904-2.445-2.158 0-8.342.72-9.206 10.212 3.454 15.103 16.254 7.05 16.254 7.05l-3.165-3.598s-7.91 3.02-7.91-4.027zM90.607 7.365l-2.3-4.603H62.99l-5.177 13.664-5.897-13.808H26.17l-2.733 4.747h11.65V27.79h5.465V7.365h7.48l9.638 24.45 9.492-24.45h23.445zM43.228 27.933h4.948V9.09h-4.89l-.058 18.843zM67.104 27.933h4.95V9.09H67.16l-.058 18.843zM84.653 27.933h4.95V9.09h-4.89l-.06 18.843zM79.82 13.118h3.163l.144-3.883-5.608-.145s-3.885 0-3.885 3.597 4.604 8.63 4.604 8.63 1.15 1.007.574 1.87c-.575.863-5.323.29-5.323.29v4.313h6.906s3.74.433 3.74-3.6c0-4.024-5.18-9.345-5.18-9.345-.79-.85-.37-1.727.863-1.727zM100.533 8.516s-10.357-.288-10.07 10.068c.29 10.357 9.207 9.925 10.07 9.925.864 0 9.494-.864 9.35-10.5-.145-9.638-9.35-9.494-9.35-9.494zm.142 14.816s-5.032.718-5.032-4.892 4.747-4.89 4.747-4.89 4.17.287 4.313 4.028c.576 5.465-4.028 5.754-4.028 5.754zM119.95 9.09l-.43 6.33-8.775-6.904.145 19.274h5.176V20.6l8.488 7.19V9.09h-4.604zM131.19 24.035c.384.21.69.51.917.9.227.393.34.813.34 1.257 0 .427-.108.833-.323 1.22-.214.386-.516.69-.905.914-.39.225-.803.337-1.243.337-.427 0-.837-.11-1.23-.332-.38-.21-.685-.51-.908-.895-.225-.387-.336-.8-.336-1.243 0-.43.11-.845.332-1.243.21-.378.513-.68.898-.902.39-.22.802-.33 1.242-.33.413 0 .82.105 1.214.317zm-2.67-.43c-.466.25-.835.613-1.105 1.083s-.406.973-.406 1.505c0 .51.128 1.002.39 1.474.257.46.617.823 1.088 1.093.46.265.957.398 1.49.398.512 0 1.007-.132 1.478-.396.456-.25.817-.608 1.086-1.076.267-.466.4-.965.4-1.493 0-.52-.134-1.016-.396-1.49-.256-.454-.615-.813-1.08-1.08-.465-.267-.96-.4-1.488-.4-.5 0-.986.13-1.46.38zm.682 4.22V26.47h.3c.18 0 .314.038.41.11.14.106.317.353.537.744l.282.504h.625l-.39-.626c-.183-.295-.34-.504-.472-.632-.066-.064-.155-.122-.27-.17.255-.02.47-.105.64-.268.18-.17.27-.38.27-.633 0-.163-.052-.32-.15-.466-.12-.174-.302-.292-.545-.35-.142-.03-.364-.048-.667-.048h-1.095v3.192h.524v.002zm0-2.75h.58c.25 0 .417.02.513.056.193.077.29.216.29.416 0 .32-.254.482-.766.482h-.618v-.952z"/></g></g></g></svg>