<svg width="131" height="51" viewBox="0 0 131 51" xmlns="http://www.w3.org/2000/svg"><title>agoragames-new</title><g fill="none" fill-rule="evenodd"><g><g><path d="M78.09 16.094v-7.28c0-2.92-.86-5.167-2.56-6.68C73.59.403 71.276.29 70.49.33h-8.708c-2.92 0-5.167.862-6.68 2.562-1.73 1.94-1.77 4.255-1.728 5.04v.47h-.012v7.28c0 .106.01.205.012.31v.166h.006c.09 2.686.938 4.777 2.542 6.206 1.71 1.522 3.71 1.736 4.697 1.736.132 0 .247-.004.34-.01h1.428v.01h7.28c2.92 0 5.167-.943 6.68-2.642 1.73-1.94 1.77-4.255 1.728-5.04v-.323h.014zm-6.33 1.472c-.318.333-1.043.536-2.09.536h-2.538v-.013h-5.038c1.105 0-1.304-.022-1.485.01-.006.002-.455.013-.714-.236-.306-.293-.49-1.018-.52-1.945V7.83c0-.183.02-.073-.012-.253 0-.004-.012-.454.236-.713.32-.333 1.136-.532 2.184-.532H71c.004-.002.297.05.558.3.333.32.532 1.136.532 2.184v1.433h-.012v6.268c0 .184-.02.074.012.254 0 .003-.08.535-.33.794z" id="Shape" fill="#727174"/><path d="M22.167 2.892c-1.513-1.7-3.76-2.56-6.682-2.56H9.24c-2.92 0-5.167.86-6.68 2.56C.83 4.832.79 7.147.83 7.932v16.233h6v-7.917h11.06v7.917h6V7.93c.046-.783.004-3.098-1.725-5.038zM6.833 10.248V7.83c0-.183.022-.073-.01-.253 0-.004-.013-.454.235-.713.32-.333 1.136-.532 2.184-.532h6.244c1.048 0 1.864.2 2.184.532.226.235.237.627.243.633-.03.17-.018.155-.018.335v2.417H6.833v-.002zM48.86 29.652c-1.514-1.7-3.762-2.56-6.683-2.56H34.94v.037c-2.44.176-4.352 1.02-5.688 2.52-1.728 1.94-1.77 4.256-1.727 5.04v15.887h6v-7.57h11.06v7.57h6V34.69c.044-.783.002-3.097-1.726-5.038zM33.524 37.01V34.59c0-.185.022-.073-.01-.255 0-.004-.013-.453.235-.713.32-.333 1.136-.532 2.184-.532h6.244c1.048 0 1.864.2 2.184.532.226.235.237.627.243.633-.03.17-.018.154-.018.335v2.417H33.525z" id="Shape" fill="#BA5B27"/><path d="M79.633 29.652c-1.512-1.7-3.76-2.56-6.682-2.56H54.362v23.485h6V33.092h4.24v17.486h6V33.092h2.35c1.05 0 1.866.2 2.185.532.227.235.238.627.244.633-.032.17-.02.154-.02.335v15.986h6V34.69c.044-.783 0-3.097-1.727-5.038zM128.557 37.203c-1.477-1.41-3.186-1.65-4.11-1.665v-.006h-8.856c-.16 0-.134-.015-.24.005-.073-.006-.17-.028-.165-.02-.002-.002-.145-.228-.145-.936 0-.518.04-.888.084-1.14h14.824v-6.35H114.29c-.592-.024-1.965.125-3.217 1.35-1.348 1.324-2.033 3.39-2.033 6.14 0 2.987 1.143 4.71 2.102 5.63 1.484 1.42 3.22 1.662 4.148 1.676v.005h8.855c.164 0 .133.017.246-.004.062.007.128.02.138.02 0 .003.168.25.168 1.056 0 .587-.047.996-.098 1.268h-14.81v6.35H125.5c.63 0 1.93-.163 3.133-1.34 1.367-1.336 2.06-3.446 2.06-6.277 0-3.072-1.164-4.828-2.138-5.76zM91.818 44.57c-.182 0-.074-.02-.254.01-.008.002-.453.014-.713-.235-.333-.32-.532-1.87-.532-2.918v-.094h12.96v-6h-12.96v-2.24h13.627v-6H84.318v14.334c0 2.92.86 5.903 2.56 7.416 1.71 1.522 3.71 1.735 4.698 1.735.133 0 .248-.004.342-.008h12.61v-6h-12.71zM128.68 2.892c-1.514-1.7-3.762-2.56-6.683-2.56h-6.244c-2.92 0-5.168.86-6.68 2.56-1.73 1.94-1.772 4.255-1.73 5.04v16.233h6v-7.917h11.062v7.917h6V7.93c.043-.783 0-3.098-1.726-5.038zm-15.335 7.356V7.83c0-.115-.007-.23-.02-.345 0-.003.033-.385.228-.603.307-.345 1.13-.55 2.2-.55h6.244c1.048 0 1.864.198 2.184.53.227.236.237.628.243.633-.03.17-.018.155-.018.335v2.417h-11.06zM104.875 24.188l-5.61-8.17c.822-.192 1.7-.584 2.49-1.278 1.655-1.455 2.495-3.775 2.495-6.895 0-5.208-3.683-7.37-6.158-7.554-.074-.004-.147-.007-.22-.007H84.56c-1.656 0-3 1.343-3 3v20.883h6v-8.008h4.467l5.503 8.03h7.342zM87.562 6.28h10.06c.226.067.628.315.628 1.563 0 1.497-.28 2.115-.402 2.312H87.563V6.28z" id="Shape" fill="#727174"/><path d="M37.625 10.248v6h6.397c-.173 1.26-.52 1.763-.66 1.917h-7.704c-1.048 0-1.864-.2-2.184-.532-.226-.235-.237-.627-.243-.633.032-.17.02-.155.02-.335V7.83c0-.183.02-.073-.012-.253 0-.004-.012-.454.236-.713.32-.333 1.136-.532 2.184-.532h12.925v-6H35.658c-2.92 0-5.168.86-6.682 2.56-1.728 1.94-1.77 4.256-1.727 5.04v8.636c-.044.782-.002 3.097 1.726 5.038 1.513 1.7 3.76 2.56 6.682 2.56h8.06c.52 0 2.256-.13 3.863-1.73 1.578-1.568 2.42-3.12 2.523-6.185h.02V10.252H37.626v-.002zM11.142 36.884v5.924h6.397c-.174 1.244-.522 1.74-.662 1.894H9.175c-1.048 0-1.864-.197-2.184-.527-.225-.23-.236-.618-.242-.624.03-.165.018-.15.018-.33V34.5c0-.182.022-.073-.01-.25 0-.006-.013-.45.235-.705.32-.33 1.137-.526 2.185-.526H22.1v-5.924H9.176c-2.92 0-5.168.85-6.682 2.528C.766 31.538.724 33.824.767 34.598V43.122c-.043.773 0 3.06 1.727 4.976 1.513 1.678 3.76 2.528 6.682 2.528h8.06c.52 0 2.256-.13 3.863-1.71 1.576-1.548 2.417-3.08 2.52-6.107h.022v-5.925h-12.5z" fill="#BA5B27"/></g></g></g></svg>