<svg width="174" height="27" viewBox="0 0 174 27" xmlns="http://www.w3.org/2000/svg"><title>bethesda</title><g fill="none" fill-rule="evenodd"><g fill="#F7F8F8"><g><path d="M23.077 6.622h4.117c1.596 0 2.66.46 2.66 1.738 0 1.633-1.028 2.094-2.66 2.094h-4.117V6.622zM15.27 25.927h14.372c4.47 0 8.872-2.626 8.872-7.7 0-3.726-2.13-5.536-4.4-6.317 1.88-1.03 3.123-2.413 3.123-4.968 0-2.59-1.42-6.35-8.09-6.35H15.27v25.335zm7.807-10.753h4.896c1.846 0 2.734.816 2.734 2.31 0 1.95-1.42 2.41-3.05 2.41h-4.58v-4.72zM59.443 18.297c0-7.168-3.157-11.25-10.468-11.25-5.82 0-9.725 4.365-9.725 9.723 0 6.14 4.436 9.617 10.33 9.617 4.186 0 8.054-1.846 9.472-5.82H52.49c-.57.888-1.81 1.313-2.947 1.313-2.2 0-3.406-1.49-3.583-3.584h13.483zm-13.45-3.654c.32-1.988 1.526-3.09 3.62-3.09 1.81 0 3.09 1.386 3.09 3.09h-6.71zM67.99 1.9h-7.028v5.608H57.84v4.33h3.122v8.8c0 5.04 3.3 5.502 6.283 5.502 1.49 0 3.087-.214 4.507-.214v-5.322c-.532.07-1.063.106-1.597.106-1.774 0-2.163-.747-2.163-2.45v-6.422h3.76v-4.33h-3.76V1.9M72.915 25.927h7.026v-9.724c0-2.945 1.6-3.55 2.806-3.55 2.058 0 2.305 1.492 2.305 3.622v9.65h7.027v-12.63c0-4.224-3.014-6.247-6.315-6.247-2.98 0-4.542 1.028-5.75 2.448h-.07V.59h-7.027v25.337" id="Shape"/><path d="M113.185 18.297c0-7.168-3.16-11.25-10.47-11.25-5.82 0-9.723 4.365-9.723 9.723 0 6.14 4.435 9.617 10.323 9.617 4.19 0 8.056-1.846 9.478-5.82h-6.566c-.567.888-1.81 1.313-2.945 1.313-2.2 0-3.407-1.49-3.583-3.584h13.485zm-13.452-3.654c.32-1.988 1.525-3.09 3.62-3.09 1.81 0 3.088 1.386 3.088 3.09h-6.707zM130.314 12.868c-.176-4.72-4.966-5.82-8.94-5.82-3.69 0-8.695 1.207-8.695 5.856 0 3.156 2.163 4.86 7.522 5.784 3.266.568 3.87.888 3.87 1.95 0 1.066-1.456 1.42-2.38 1.42-.852 0-1.524-.212-1.88-.53-.53-.463-.817-.994-.853-1.634h-6.707c.107 4.756 4.86 6.494 9.192 6.494 4.47 0 9.368-1.385 9.368-6.494 0-3.016-2.06-4.4-4.4-5.145-2.343-.783-5.005-.925-6.177-1.42-.39-.18-.815-.427-.815-.96 0-1.205 1.136-1.418 2.13-1.418.568 0 1.137.177 1.563.532.46.32.78.78.814 1.384h6.387" id="Shape"/><path d="M144.254 16.7c0 2.2-.565 4.577-3.087 4.577-2.517 0-3.087-2.378-3.087-4.577 0-2.165.57-4.543 3.087-4.543 2.52 0 3.087 2.378 3.087 4.543zm6.78-16.11h-7.028v8.94h-.07c-1.063-1.56-2.944-2.482-5.038-2.482-6.176 0-7.843 5.252-7.843 9.582 0 4.612 2.52 9.758 7.736 9.758 3.442 0 4.508-1.312 5.396-2.483h.068v2.022h6.78V.59zM171.04 14.252c0-3.548.07-7.204-8.732-7.204-4.363 0-9.26.852-9.475 6.032h6.53c.035-.78.462-1.88 2.624-1.88 1.138 0 2.308.46 2.308 1.703 0 1.17-.957 1.454-1.915 1.632-3.585.673-10.398.46-10.398 6.28 0 3.87 2.945 5.572 6.494 5.572 2.27 0 4.435-.496 5.927-2.198h.07c-.035.495.07 1.24.248 1.736h7.17c-.78-1.172-.85-2.733-.85-4.116v-7.558zm-6.745 5.11c-.105 1.915-1.35 2.875-2.943 2.875-1.278 0-2.2-.853-2.2-1.704 0-1.243.813-1.634 2.376-1.987.957-.214 1.915-.46 2.768-.887v1.703zM10.995.565v11.062H.148V.565h10.847zM7.175 4.46v3.27H3.97V4.46h3.204zM170.1 3.588h.323c.366 0 .675-.133.675-.478 0-.244-.176-.49-.675-.49-.146 0-.245.013-.323.023v.945zm0 1.54h-.443V2.346c.234-.035.455-.067.787-.067.423 0 .7.09.865.21.167.124.254.312.254.577 0 .367-.242.59-.543.678v.022c.244.044.41.266.468.677.066.433.133.6.18.688h-.47c-.065-.087-.133-.343-.186-.71-.068-.353-.245-.486-.6-.486h-.312V5.13zm.465-3.56c-1.098 0-1.995.943-1.995 2.107 0 1.19.897 2.12 2.008 2.12 1.108.012 1.996-.93 1.996-2.107s-.888-2.12-1.996-2.12h-.013zm.013-.39c1.363 0 2.45 1.112 2.45 2.498 0 1.41-1.087 2.508-2.463 2.508-1.363 0-2.473-1.1-2.473-2.508 0-1.386 1.11-2.497 2.473-2.497h.013z"/></g></g></g></svg>