<svg width="44" height="52" viewBox="0 0 44 52" xmlns="http://www.w3.org/2000/svg"><title>hydra-old</title><g fill="none" fill-rule="evenodd"><g><g><g><g id="Shape" fill="#727275"><path d="M7.342 7.176V4.18H1.855v2.996H.53V.128h1.325v2.86h5.487V.13h1.325v7.048H7.342zM42.356 7.176l-2.983-5.7-2.98 5.7h-1.416L38.674.128h1.506l3.7 7.048h-1.524zM17.04 7.176V.128h5.154c.513 0 .95.03 1.305.09.367.064.677.162.923.294.26.14.463.317.606.53.136.2.235.44.3.716.058.255.093.548.104.87.01.308.014.648.014 1.024 0 .375-.005.716-.014 1.023-.01.323-.046.615-.104.87-.065.277-.165.517-.303.72-.142.21-.346.388-.605.527-.246.132-.556.23-.924.292-.354.06-.794.092-1.305.092H17.04zm5.153-1.19c.352 0 .653-.01.895-.028.224-.02.408-.054.55-.106.115-.044.2-.104.26-.182.064-.087.114-.208.146-.36.038-.178.06-.4.068-.662.007-.28.01-.61.01-.997 0-.386-.003-.718-.01-.996-.007-.263-.03-.484-.068-.66-.033-.152-.083-.275-.147-.364-.06-.076-.144-.134-.262-.18-.14-.052-.323-.088-.546-.105-.24-.02-.543-.03-.897-.03h-3.828v4.67h3.828zM32.98 7.176v-1.48c0-.194-.005-.36-.01-.5-.008-.115-.026-.21-.056-.287-.023-.057-.058-.102-.106-.136-.04-.027-.123-.07-.278-.102-.146-.032-.34-.053-.578-.066-.243-.012-.545-.018-.902-.018h-3.42v2.59h-1.327V.127h4.882c.507 0 .94.02 1.29.056.36.037.655.093.896.17.258.08.46.187.606.314.15.13.262.29.333.47.064.165.103.352.114.554.01.182.015.38.015.6 0 .284-.022.542-.062.762-.045.237-.122.443-.23.613-.1.163-.232.296-.396.4.143.103.256.232.337.384.09.165.147.357.176.574.025.197.037.417.037.672v1.48H32.98zm-1.795-3.778c.357 0 .66-.007.903-.02.23-.01.426-.034.578-.065.155-.033.238-.074.28-.104.046-.035.08-.078.103-.134.03-.076.048-.17.054-.286.008-.14.012-.308.012-.5 0-.182-.004-.335-.012-.465-.005-.102-.02-.184-.05-.245-.02-.045-.05-.08-.097-.106-.04-.023-.124-.06-.285-.09-.148-.03-.342-.046-.58-.055-.245-.01-.548-.013-.907-.013H27.63v2.08h3.555zM16.4.128H14.98l-2.062 3.95-2.067-3.95H9.33l2.78 5.295v1.753h1.51V5.424L16.4.128z"/></g><g id="Shape" fill="#727275"><path d="M.62 8.807v9.904c.5 5.31 1.783 9.855 3.492 13.72l-.007-.012s.745 2.284 3.246 5.927c4.84 5.77 13.444 2.667 13.444 2.667 5.088-2.09 7.098-6.868 7.098-6.868.25-.65.412-1.252.504-1.814-.733 1.504-3.146 5.562-8.347 7.024 0 0-6.322 2-11.82-2.12-3.045-4.682-5.57-10.78-6.31-18.583v-8.31h40.59v8.31c-.21 2.196-.564 4.25-1.025 6.184.322.4.665.85 1.014 1.35.604-2.304 1.058-4.79 1.31-7.473V8.808H.62zM36.604 22.11c.604-.118 1.15-.208 1.15-.208-3.026-2.625-5.99-3.8-5.99-3.8s1.375-.252 2.237-.274c-5.567-3.24-10.895-2.877-10.895-2.877 2.4-.793 3.585-.88 3.585-.88-7.73-1.25-13.345 2.002-13.345 2.002S7.44 18.54 3.872 24.877c0 0 .182 1.097.44 1.784 1.382-.625 2.734-1.133 4.016-1.55 2.877-3.284 6.1-4.765 6.1-4.765s4.94-2.86 11.74-1.76c0 0-.957.43-1.883.904 0 0 3.52-.352 8.496 2.528-.645.2-1.29.508-1.29.508s1.632.65 4.41 2.95c0 0 1.294.97 3.35 3.523C35.136 42.28 25.234 49.64 22.856 51.252c1.448-.724 5.157-2.787 9.076-6.66.155-.153.31-.307.464-.467l.165-.167c.253-.263.506-.53.757-.807.016-.017.03-.032.044-.05.54-.592 1.08-1.218 1.613-1.88.004-.005.01-.01.013-.015.222-.276.443-.564.663-.854.09-.117.18-.234.267-.355.104-.14.205-.282.308-.423 2.24-3.107 4.29-6.905 5.728-11.49-2.192-3.652-5.35-5.977-5.35-5.977zM10.86 18.848l-.043.876-2.525 1.016s2-1.91 3.2-2.692l-.633.8z"/></g><path d="M29.743 22.552s.607-.38 1.227-.65c-5.267-2.298-9.104-1.56-9.104-1.56.65-.676 1.57-1.125 1.57-1.125-6.387-.363-10.89 3.097-10.89 3.097s-5.21 3.736-6.915 7.773c0 0 .365 1.183.758 2.002 5.42-3.117 10.596-3.897 10.596-3.897-.167-.955-.48-1.557-.48-1.557s13.472-1.753 10.978 7.87c0 0-1.456 4.975-6.275 7.624 0 0-6.35 3.295-11.05-.06 0 0 4.935 6.133 12.057 9.482 0 0 12.993-5.856 15.973-22.58-3.082-4.165-8.444-6.42-8.444-6.42zm-18.545 3.236l-2.47 1.178s1.887-2.043 3.042-2.904l-.584.843.012.883z" fill="#F17523"/></g></g></g></g></svg>