<svg width="233" height="38" viewBox="0 0 233 38" xmlns="http://www.w3.org/2000/svg"><title>hydra-wordmark</title><g fill="none" fill-rule="evenodd"><g fill="#fff"><g><path d="M36.566 37.833V21.74H7.113v16.093H0V0h7.113v15.356h29.453V0h7.113v37.833h-7.114zM224.517 37.833L208.5 7.237l-15.998 30.596H184.9L204.747 0h8.084l19.865 37.833h-8.178zM88.615 37.833V0h27.668c2.752 0 5.108.166 7.005.49 1.973.337 3.642.864 4.96 1.57 1.392.744 2.483 1.7 3.256 2.842.733 1.077 1.267 2.375 1.615 3.846.31 1.373.5 2.944.558 4.668.05 1.656.077 3.483.077 5.5 0 2.012-.025 3.843-.077 5.492-.057 1.733-.248 3.3-.56 4.672-.347 1.48-.88 2.77-1.622 3.853-.765 1.138-1.856 2.09-3.248 2.836-1.318.707-2.987 1.235-4.96 1.567-1.902.324-4.26.495-7.005.495H88.615zm27.668-6.387c1.887 0 3.504-.055 4.806-.15 1.2-.098 2.19-.288 2.946-.572.62-.235 1.082-.554 1.403-.974.344-.467.61-1.116.786-1.938.202-.95.327-2.142.364-3.546.035-1.495.054-3.274.054-5.35 0-2.072-.02-3.857-.054-5.348-.037-1.412-.163-2.597-.364-3.54-.175-.824-.442-1.483-.792-1.956-.313-.408-.77-.724-1.404-.96-.75-.287-1.733-.477-2.933-.57-1.286-.104-2.906-.154-4.813-.154h-20.55v25.057h20.55zM174.173 37.833v-7.946c0-1.044-.018-1.94-.054-2.683-.033-.618-.132-1.134-.294-1.543-.122-.3-.307-.538-.565-.72-.212-.15-.662-.375-1.496-.552-.782-.17-1.816-.28-3.1-.354-1.31-.065-2.93-.098-4.847-.098H145.46v13.897h-7.12V0h26.21c2.717 0 5.038.102 6.916.297 1.947.2 3.523.5 4.82.913 1.376.435 2.463 1.003 3.247 1.688.802.696 1.41 1.55 1.79 2.523.35.885.558 1.887.617 2.974.05.972.083 2.037.083 3.212 0 1.528-.11 2.914-.33 4.096-.24 1.27-.654 2.38-1.23 3.294-.536.873-1.254 1.59-2.134 2.15.763.55 1.374 1.24 1.81 2.057.48.877.795 1.91.948 3.076.134 1.056.2 2.234.2 3.606v7.946h-7.115zm-9.624-20.28c1.915 0 3.54-.037 4.85-.103 1.238-.056 2.284-.184 3.1-.347.834-.18 1.275-.396 1.5-.56.253-.18.435-.41.555-.712.167-.406.264-.92.295-1.534.037-.76.058-1.655.058-2.688 0-.97-.02-1.793-.058-2.49-.024-.548-.116-.986-.27-1.315-.106-.24-.265-.422-.517-.57-.216-.13-.67-.326-1.534-.493-.794-.147-1.837-.24-3.104-.286-1.328-.042-2.952-.064-4.877-.064h-19.09v11.165h19.09zM85.18 0h-7.604l-11.07 21.2L55.408 0h-8.177l14.92 28.422v9.41h8.115v-9.407L85.18 0z"/></g></g></g></svg>