<svg width="176" height="29" viewBox="0 0 176 29" xmlns="http://www.w3.org/2000/svg"><title>microsoft</title><g fill="none" fill-rule="evenodd"><g fill="#F7F8F8"><g><path d="M.148 27.777L6.27.217H17.2l.498 15.395L25.055.217H36.01l-6.147 27.56h-7.935l3.284-14.818-7.382 14.817h-5.702l-.29-14.818-3.677 14.817H.15zM36.957 4.71h7.382l.998-4.493h-7.41l-.97 4.492zM39.216 27.804l-7.435-.027 4.546-20.414h7.435l-4.544 20.44zM67.38 7.363h6.648l-.578 2.522c.92-1.13 2.023-1.84 3.415-2.312 1.13-.368 2.207-.552 3.468-.552l-1.708 6.648c-.42 0-5.57-1-7.173 6.858l-1.655 7.277h-7.015l4.6-20.44zM63.492 20.236c0 .158-2.338 8.355-12.61 8.146-13.768-.29-10.195-22.36 5.437-21.57 8.88.446 8.433 7.83 8.354 8.144h-7.672c.105-.29.368-3.337-2.076-3.284-4.545.13-7.777 11.402-2.76 11.508 2.313.078 3.39-2.602 3.6-2.943h7.726zM129.412 28.46c-14.95-.63-10.457-22.647 4.887-21.912 14.423.71 10.324 22.516-4.888 21.912zm4.388-17.104c-4.966-1-8.67 10.93-3.94 11.9 5.253 1.105 8.774-10.927 3.94-11.9zM157.42 4.342c-2.05 0-2.444.788-2.786 2.338l-.13.683h4.334l1.077-4.94h6.778l-1.05 4.94h3.493l-1.024 4.703h-3.494l-1.918 8.96c-.08.498-.263.944-.08 1.496.29.814 3.206.473 3.206.473l-1.13 4.677s-5.938.684-7.935-.71c-.892-.603-1.863-1.864-1.26-4.57l2.286-10.3-4.072-.026-3.442 15.71h-7.304l3.415-15.71h-3.757l1.052-4.703h3.65c.658-2.627 1.236-4.414 2.865-5.78 2.232-1.813 8.04-1.104 8.04-1.104l-.814 3.862zM91.84 20.788l13.873-.025s-1.182 3.073 3.18 3.1c3.02 0 4.203-3.44.132-4.15-1.866-.342-9.09-1.55-8.276-7.12.682-4.573 5.437-6.175 10.64-6.096 10.64.13 8.644 6.384 8.775 6.805h-7.094s.763-2.627-2.442-2.627c-2.917 0-3.626 2.627-.263 3.336 4.1.895 8.8 1.105 9.063 6.386.08 1.472-.788 8.354-11.508 8.145-9.826-.21-10.51-4.833-10.246-6.987-1.786 3.757-6.253 7.094-12.217 6.883-14.95-.473-10.404-22.62 4.914-21.86 6.963.342 9.617 5.624 8.776 10.826-.132.92-.21 1.05-.474 1.13l-6.83 2.256zM89.82 11.33c-4.913-.972-8.59 10.903-3.89 11.9 5.204 1.08 8.698-10.928 3.89-11.9zM173.235 7.336c3.547 0 3.547 5.28 0 5.28s-3.547-5.28 0-5.28zm0 .474c-2.97 0-2.97 4.31 0 4.31 2.995-.002 2.995-4.31 0-4.31zm.474 2.47l.523 1.05h-.63l-.42-1.05h-.368l-.158 1.128h-.552l.447-2.81h1.287s.708.183.655.866c-.077.815-.734.815-.786.815zm-.133-1.314h-.525l-.132.92h.525s.526.078.578-.448c0-.472-.446-.472-.446-.472z"/></g></g></g></svg>