<svg width="165" height="39" viewBox="0 0 165 39" xmlns="http://www.w3.org/2000/svg"><title>mlg</title><g fill="none" fill-rule="evenodd"><g><g><path d="M148.583.76c.166.203.402.516.794.637.36.123 1.165.273 2.06 1.092 1.004.92 3.208 3.03 5.92 6.07l2.717-1.378L164.9.72h-16.347c.01.01.015.024.03.04z" id="Shape" fill="#C22033"/><g id="Shape" fill="#000"><path d="M36.388 38.15H30.95c-.03-.016-.056-.043-.085-.05-1.08-.257-1.81-1.382-1.472-2.607.612-2.225 1.205-4.446 1.803-6.667 1.165-4.3 2.325-8.607 3.485-12.9.017-.066.02-.13.03-.197-.08.06-.14.128-.19.196-2.164 2.816-4.328 5.642-6.487 8.46-1.015 1.31-2.02 2.644-3.044 3.95-.623.8-1.447 1.227-2.48 1.22-1.076-.006-2.15 0-3.22 0-.166 0-.337-.006-.498-.04-.994-.225-1.622-.84-1.878-1.824-1.004-3.88-2.004-7.76-3.008-11.636-.025-.112-.06-.23-.09-.345-.066.075-.096.142-.116.216-1.115 4.158-2.23 8.312-3.34 12.47-.703 2.64-1.41 5.284-2.124 7.916-.24.907-.824 1.49-1.723 1.775-.055.015-.105.042-.166.063H.065v-.104c.045-.086.1-.168.12-.256.337-1.22.663-2.438.99-3.662 1.104-4.115 2.2-8.225 3.31-12.338 1.2-4.495 2.4-8.99 3.61-13.49.527-1.957 1.04-3.916 1.582-5.875.23-.838.803-1.38 1.632-1.657.1-.035.21-.07.32-.098h3.957c.086.022.16.058.24.088 1.02.28 1.7.92 1.98 1.954.136.49.276.98.412 1.474 1.48 5.333 2.962 10.66 4.443 15.99.025.072.05.14.075.233.08-.085.13-.142.18-.2.875-1.072 1.744-2.145 2.623-3.21 4.06-4.976 8.116-9.944 12.174-14.92.578-.707 1.31-1.164 2.2-1.357.06-.01.11-.038.17-.053h6.278c-.257.96-.518 1.93-.77 2.896-1.074 4-2.13 7.994-3.198 11.994-1.657 6.24-3.32 12.475-4.98 18.72-.348 1.29-.685 2.58-1.026 3.87zM111.566.67c-.478 1.79-.95 3.58-1.44 5.367-.252.926-1.1 1.617-2.064 1.713-.166.015-.332.024-.502.024H92.408c-1.355-.108-2.71 1.075-3.022 2.323-.307 1.225-.658 2.443-.98 3.663-1.4 5.237-2.806 10.468-4.202 15.71-.06.227-.105.48-.1.722.01.417.255.688.662.776.176.04.366.053.547.053H97.11c-.02.1-.025.17-.045.25-.457 1.687-.9 3.374-1.36 5.06-.252.942-.875 1.517-1.81 1.77-.045.007-.085.034-.115.05H83.164c-.19-.04-.386-.074-.587-.11-2.175-.39-3.887-1.47-5.032-3.395-.527-.887-.813-1.854-.93-2.88-.145-1.276.06-2.5.393-3.73C78.56 22.27 80.1 16.5 81.648 10.737c.21-.79.417-1.587.71-2.343.847-2.182 2.273-3.932 4.126-5.333 1.392-1.036 2.928-1.785 4.63-2.146.402-.088.814-.133 1.222-.196.074-.015.155-.038.226-.048h19.004zM61.628.67l-1.08 4.05c-1.37 5.103-2.736 10.216-4.112 15.32-.828 3.108-1.662 6.216-2.496 9.32-.07.257-.11.52-.09.784.03.422.3.74.723.824.15.035.312.04.462.04 4.922.005 9.838.005 14.76.005.24 0 .478.012.703.068.96.222 1.592 1.19 1.38 2.147-.134.65-.315 1.295-.49 1.943l-.784 2.98H52.967c-.045-.017-.09-.04-.146-.05-.315-.055-.642-.092-.958-.166-1.948-.464-3.48-1.525-4.515-3.254-1.02-1.682-1.255-3.52-.944-5.434.105-.67.292-1.323.468-1.98 1.286-4.833 2.592-9.666 3.888-14.505.91-3.42 1.828-6.837 2.747-10.254.25-.917.85-1.5 1.753-1.77.065-.02.13-.048.19-.068 2.057.003 4.116.003 6.18.003zM100.85 38.15c-.03-.016-.05-.043-.08-.053-.914-.262-1.42-1.233-1.15-2.183.397-1.417.764-2.848 1.15-4.276.778-2.9 1.562-5.805 2.335-8.703.025-.072.035-.156.056-.254h-7.964c-.658 0-1.17-.26-1.526-.822-.252-.41-.312-.864-.187-1.323.36-1.387.733-2.77 1.11-4.15.01-.037.03-.078.055-.136h14.408c.874 0 1.552.51 1.737 1.322.08.326.046.646-.035.965-.376 1.367-.738 2.73-1.11 4.098-1.37 5.062-2.73 10.124-4.103 15.19-.03.106-.065.216-.105.325h-4.59z"/></g><g id="Shape" fill="#005695"><path d="M136.305.937c-4.946 1.55-7.428 4.045-7.282 4.874.12.637 1.08.654 2.587.616 1.637-.035 3.62-.078 4.604 1.354 2.918-1.805 3.496-3.182 4.922-4.14.27-.182.26-.782.347-1.035.105-.313.155-.58.48-.804.745-.483 1.864-.905 2.964-1.187h-7.497c-.398.106-.8.22-1.125.324zM122.766 19.047c-.26-1.188.01-1.965.085-2.334.087-.396-.154-.793-.25-1.037-.105-.28-.14-.5-.07-.75.326-1.176 2.667-3.573 4.334-4.412.356-.18.612-.088.94-.015.255.052.807.343 1.103.197 1.637-.8 3.19-.543 6.568-2.473.035-.023.076-.05.12-.068.006-.006.01-.01.02-.016l-.12.066c-.763-1.03-2.34-.995-3.86-.963-1.532.035-3.105.068-3.42-1.245-.353-1.517 2.907-4.03 6.538-5.386h-9.28s-2.245-.208-2.964 2.322l-9.356 35.268 12.575-9.043c-1.7-4.813-2.628-8.572-2.964-10.113z"/></g><path d="M128.872 37.035c-1.336-2.98-2.43-5.81-3.305-8.334-4.018 2.595-11.118 7.37-12.414 9.503h16.356c-.226-.34-.443-.73-.638-1.168z" id="Shape" fill="#10436D"/><g fill="#901926"><path d="M161.454 13.44L164.9.72l-8.885 6.367c1.618 1.74 3.486 3.878 5.44 6.356zM158.235 20.82c-2.02-1.478-5.625-3.844-7.312-4.087-.507 0-.753.34-.838.48-.27.765-.804 1.446-1.562 1.88-1.3.758-2.882.582-3.987-.304-.356-.22-.718-.142-.91-.063-.42.22-.857.464-1.324.726h.005c-.06.035-.11.062-.16.093-.046.024-.08.048-.126.073-.46.265-.888.523-1.29.78-.16.13-.41.4-.396.818.21 1.4-.432 2.857-1.732 3.603-.76.443-1.612.563-2.415.418-.15 0-.573.048-.83.484-.637 1.588-.39 5.89-.12 8.38.19 1.77-.034 3.145-.567 4.1h10.667s4.444.327 8.14-3.307c3.712-3.626 4.59-8.944 4.59-8.944l1.206-4.46c-.34-.194-.686-.412-1.038-.67z"/></g></g></g></g></svg>