<svg width="149" height="27" viewBox="0 0 149 27" xmlns="http://www.w3.org/2000/svg"><title>sony</title><g fill="none" fill-rule="evenodd"><g fill="#F7F8F8"><g><path d="M146.138 21.35c-1.254 0-2.264 1.01-2.264 2.25 0 1.255 1.01 2.266 2.264 2.266 1.247 0 2.25-1.01 2.25-2.265 0-1.24-1.003-2.25-2.25-2.25zm0 4.242c-1.1 0-1.985-.886-1.985-1.99 0-1.094.886-1.98 1.985-1.98 1.093 0 1.98.886 1.98 1.98 0 1.104-.888 1.99-1.98 1.99zM147.295 23.01c0-.212-.094-.437-.282-.543-.19-.112-.402-.124-.615-.124h-1.1v2.523h.31V23.7h.565l.72 1.166h.368L146.5 23.7c.45-.01.797-.193.797-.69zm-1.217.45h-.472v-.893h.72c.312 0 .656.047.656.438 0 .514-.55.454-.904.454zM132.904 10.812l4.616-4.928c.268-.36.4-.615.4-.832 0-.36-.31-.507-1.29-.507h-1.164v-3.11h12.605v3.11h-1.655c-1.913 0-2.27.29-4.938 3.654l-7.302 7.884v4.812c0 1.23.622 1.664 2.4 1.664h2.76v3.003h-17.656V22.56h2.757c1.778 0 2.4-.433 2.4-1.664v-4.812l-8.6-9.513c-1.422-1.662-1.225-2.025-5.182-2.025v-3.11h15.967v3.11h-1.138c-1.156 0-1.645.217-1.645.652 0 .36.353.65.577.94l4.35 4.74c.52.54 1.15.61 1.737-.065zM25.78 1.434h3.852v8.68h-3.557c-.314-1.734-1.4-2.41-2.392-3.32-1.787-1.643-5.656-3.01-8.91-3.01-4.2 0-7.747 1.304-7.747 3.22 0 5.32 24.022 1.086 24.022 11.143 0 5.244-5.146 8.175-14.386 8.175-3.2 0-8.04-.993-10.896-2.51-.896-.52-1.276.488-1.443 1.75H.373V16.59h3.573c.787 2.28 1.873 2.75 2.87 3.654 1.733 1.59 5.855 2.75 9.637 2.712 5.7-.055 7.66-1.302 7.66-3.11 0-1.808-1.938-2.243-8.186-3.22l-5.303-.867C4.64 14.854.28 13.515.28 8.74.28 3.786 5.793.676 14.51.676c3.672 0 6.747.49 9.695 2.158.82.53 1.586.594 1.576-1.4zM100.942 15.97l.076-9.65c0-1.266-.657-1.7-2.54-1.7h-2.21V1.618h14.067V4.62H108.5c-1.882 0-2.54.434-2.54 1.7v19.424l-5.508-.042-17.83-16.886v12.262c0 1.23.658 1.7 2.54 1.7h2.447v2.966H73v-2.967h2.42c1.882 0 2.54-.47 2.54-1.7V6.32c0-1.266-.658-1.7-2.54-1.7H73V1.618h12.632l15.31 14.35zM53.822.492c-11.21 0-18.23 4.957-18.23 12.914 0 7.814 6.92 12.733 17.89 12.733 11.647 0 18.423-4.848 18.423-13.132 0-7.45-7.312-12.516-18.083-12.516zm-.255 22.5c-6.206 0-9.773-3.582-9.773-9.768 0-6.04 3.723-9.622 10.083-9.622 6.102 0 9.67 3.654 9.67 9.875 0 6.078-3.62 9.514-9.98 9.514z"/></g></g></g></svg>