<svg xmlns="http://www.w3.org/2000/svg" width="466" height="100" viewBox="0 0 466 100"><path fill="#727174" d="M140.21 17.05h3.875v72.657h-3.875zM106.555 26.176l-8.175-3.26-.224-3.7-7.582-3.49-.17-4.58s-25.18-9.972-36.806-9.972c-10.51 0-34.31 9.268-35.72 9.795l-.168 4.228-7.23 3.135-.224 4.054-9.23 3.788S-1.81 73.617 53.74 98.048c55.02-22.67 52.813-71.872 52.813-71.872M53.76 91.792C5.343 68.832 7.008 29.598 7.008 29.598l8.71-3.17.264-4.565 7.57-2.756.23-4.795s19.907-7.466 29.98-7.466c10.07 0 31.03 8.22 31.03 8.22l.21 4.593 7.094 2.753.28 4.033 8.913 3.373c0-.002-1.386 42.72-47.526 61.972"/><path fill="#727174" d="M75.555 44.61C77.52 43.39 83.71 39.28 83.71 33.4c0-7.647-8.885-12.677-8.885-12.677-6.817-4.267-15.33-6.33-18.3-6.693v71.7c15.527-9.714 27.123-19.584 26.85-31.472-.18-7.694-7.82-9.65-7.82-9.65zM62.478 21.78s14.545 4.16 14.545 11.263c0 2.518-.92 8.314-14.494 11.074l-.052-22.337zm14.89 32.854c.106 10.185-14.84 18.673-14.84 18.673V50.915s3.116-1.606 7.973-1.606c4.39 0 6.87 2.936 6.87 5.324M32.308 69.27c-8.104-6.812-15.883-28.525-16.36-38.397 1.664-.6 4.614-1.313 6.25-1.405 0 0 2.224 17.242 10.567 29.213l2.065-4.157S28.68 32.68 30.084 22.6c2-.706 4.673-1.256 6.43-1.526 0 0 1.16 31.4 8.54 43.192v-48.98c1.696-.804 4.27-1.33 6.286-1.49l.008 72.13s-7.494-5.246-14.056-22.838l-4.984 6.18z"/><path fill-rule="evenodd" clip-rule="evenodd" fill="#CE7019" d="M281.49 28.4c2.34 0 2.657 1.84 2.657 3.532l-.002 4.602c0 2.07-.596 3.44-3.48 3.44-7.96 0-15.92-.028-23.88-.028-4.356 0-6.015 2.412-6.015 5.74v15.653c0 3.55 2.012 5.577 5.542 5.586 5.092.014 10.184-.028 15.275-.028 3.564 0 5.03-1.477 5.03-3.87 0-1.05-.003-2.097-.003-3.327 0 0-8.757.004-12.475 0-2.102-.002-3.095-.865-3.18-2.94-.08-1.938-.072-3.882-.004-5.818.07-1.975.98-2.798 3.016-2.81 3.516-.023 17.578-.01 21.092-.007 2.563.002 3.45.867 3.447 3.375-.003 4.403-.03 8.81-.03 13.213 0 7.854-4.366 13.647-13.664 13.647H252.15c-8.44 0-13.14-5.066-13.14-13.27 0-7.72-.012-15.45-.012-23.17 0-8 5.032-13.52 11.41-13.52h31.083zM229.79 42.84c0-10.15-4.598-14.44-11.3-14.44h-27.01c-6.702 0-11.3 4.29-11.3 14.44 0 9.86-.017 22.394-.017 32.253 0 2.22 1.002 3.262 2.922 3.262 1.94 0 3.878.004 5.818.002 2.18-.002 3.162-.98 3.165-3.18.004-4.12 0-13.652 0-13.652H217.9s-.005 9.533 0 13.653c.003 2.197.985 3.177 3.165 3.18 1.94 0 3.88-.003 5.817-.003 1.92 0 2.904-1.042 2.904-3.262l.003-32.252zm-12.018 7.09h-25.577v-6.71c0-2.094 1.284-3.358 3.897-3.358h17.785c2.613 0 3.896 1.264 3.896 3.358v6.71zM394.71 28.4c8.643 0 11.763 6.7 11.763 14.046v6.293c0 9.808-10.124 12.23-10.124 12.23s9.947 14.937 10.054 15.153c.49 1.002.092 1.86-1.01 2.102-.43.094-.883.107-1.325.11-2.79.01-5.58-.037-8.366.02-1.31.03-2.176-.437-2.908-1.54-3.19-4.814-6.467-9.573-9.674-14.378-.454-.68-.928-.968-1.76-.954H370.72s.004 9.63-.002 13.713c-.002 2.113-1.016 3.136-3.095 3.142-1.9.005-3.798.008-5.697-.002-1.89-.01-2.94-1.02-2.952-2.904-.022-3.192-.007-6.385-.007-9.578 0-11.274.026-22.595-.03-33.87-.008-1.606.334-2.832 1.817-3.586h33.956zm-23.928 21.667h19.21c3.087 0 4.706-1.57 4.706-3.538l.002-3.072c0-2.09-1.44-3.62-4.89-3.62h-19.028v10.23zM349.615 43.302c0-8.17-3.27-14.903-11.623-14.903H308.37c-8.352 0-11.623 6.73-11.623 14.902v20.154c0 8.17 3.27 14.902 11.623 14.902h29.622c8.354 0 11.623-6.73 11.623-14.902V43.302zm-11.79 19.738c-.003 2.514-1.258 3.82-3.774 3.886h-21.736c-2.52-.066-3.77-1.372-3.775-3.886-.005-3.212-.005-16.112 0-19.323.003-2.514 1.256-3.82 3.774-3.885h21.737c2.518.065 3.772 1.372 3.776 3.885.002 3.21.002 16.11 0 19.323zM466 42.84c0-10.15-4.598-14.44-11.3-14.44h-27.012c-6.7 0-11.3 4.29-11.3 14.44 0 9.86-.017 22.394-.017 32.253 0 2.22 1.004 3.262 2.923 3.262 1.94 0 3.88.004 5.82.002 2.18-.002 3.16-.98 3.163-3.18.004-4.12 0-13.652 0-13.652h25.835s-.005 9.533 0 13.653c.003 2.197.984 3.177 3.164 3.18 1.94 0 3.88-.003 5.818-.003 1.92 0 2.904-1.042 2.904-3.262.002-9.86.004-22.394.004-32.252zm-12.017 7.09h-25.58v-6.71c0-2.094 1.285-3.358 3.898-3.358h17.787c2.612 0 3.896 1.264 3.896 3.358v6.71z"/><g fill="#727174"><path d="M76.955 92.763v3.24h-.895v-3.24h-1.237v-.825h3.37v.825h-1.238zM82.057 96.004V93.35l-1.144 1.736h-.023l-1.133-1.72v2.638h-.877v-4.066h.964l1.07 1.72 1.068-1.72h.964v4.066h-.89z"/></g></svg>