<svg xmlns="http://www.w3.org/2000/svg" width="466" height="100" viewBox="0 0 466 100"><path fill="#727174" d="M140.59 21.61h3.566v68.222h-3.566zM108.96 25.807l-8.44-3.363-.23-3.82-7.827-3.603-.176-4.728S66.295 0 54.294 0C43.444 0 18.877 9.564 17.42 10.11l-.172 4.366-7.463 3.237-.232 4.185-9.53 3.908S-2.9 74.78 54.442 100c56.798-23.402 54.52-74.193 54.52-74.193M54.462 93.54C4.483 69.84 6.2 29.34 6.2 29.34l8.993-3.273.272-4.71 7.813-2.845.236-4.95s20.55-7.708 30.946-7.708 32.03 8.484 32.03 8.484l.218 4.74 7.323 2.845.29 4.163 9.2 3.48s-1.43 44.1-49.057 63.974"/><path fill="#727174" d="M76.2 44.903c2.03-1.255 8.972-5.654 8.693-11.714C84.53 25.3 75.72 20.1 75.72 20.1c-7.037-4.403-15.825-6.534-18.89-6.91l.086 73.608c9.817-6.17 17.813-12.424 22.79-19.234 3.842-5.256 6.08-8.827 4.603-15.44-1.283-5.74-8.11-7.223-8.11-7.223M62.96 21.27s14.634 4.305 15.014 11.627c0 0 .84 7.758-14.96 10.46L62.96 21.27zm15.372 33.914c-.11 9.583-14.955 19.275-14.955 19.275V55.013s6.714-6.38 11.068-5.8c3.947.526 3.887 5.97 3.887 5.97M32.817 70.29c-8.365-7.03-16.395-29.444-16.887-39.636 1.717-.62 4.762-1.354 6.452-1.45 0 0 2.294 17.8 10.907 30.157l2.13-4.292s-6.348-22.55-4.898-32.95c2.064-.73 4.824-1.298 6.636-1.577 0 0 1.2 32.415 8.818 44.586V14.564c1.75-.83 4.408-1.373 6.488-1.54l.008 74.46s-7.736-5.415-14.51-23.575l-5.145 6.38zM74.16 97.018h-.995v-.7h2.83v.7H74.99V100h-.83M79.53 98.59c-.016-.44-.032-.978-.032-1.514h-.01c-.12.47-.274.996-.417 1.427l-.446 1.438h-.65l-.394-1.42c-.12-.437-.24-.96-.333-1.443h-.012c-.016.498-.038 1.066-.06 1.525l-.07 1.398h-.77l.233-3.683h1.11l.36 1.23c.12.426.23.885.312 1.316h.022c.098-.426.224-.913.35-1.322l.387-1.224H80.2L80.4 100h-.81l-.06-1.41z"/><path fill-rule="evenodd" clip-rule="evenodd" fill="#CE7019" d="M281.24 30.693c1.332.81 1.857 1.955 1.73 3.537-.128 1.527-.134 3.082-.003 4.61.174 2.063-1.17 3.47-3.486 3.444-7.972-.085-15.944-.033-23.92-.03-.524 0-1.05.017-1.57.075-2.66.302-4.122 1.798-4.382 4.466-.04.4-.068.807-.068 1.21-.004 5.22-.008 10.44-.002 15.663.006 3.555 2.016 5.587 5.553 5.596 5.1.013 10.2.04 15.3-.03 1.016-.012 2.082-.302 3.023-.702 1.326-.563 2.033-1.672 2.016-3.172-.013-1.05-.003-2.1-.003-3.334H274.1c-3.723 0-7.447.003-11.17 0-2.104-.003-3.1-.867-3.184-2.947-.08-1.938-.072-3.886-.004-5.825.07-1.98.98-2.803 3.02-2.815 3.52-.02 7.043-.006 10.564-.006s7.043-.002 10.562 0c2.568.002 3.455.868 3.453 3.38-.005 4.41.038 8.824-.048 13.235-.055 2.68-.62 5.28-1.83 7.71-1.49 3.004-3.947 4.766-7.164 5.438-1.53.32-3.113.51-4.674.52-7.568.052-15.14.022-22.705.025-2.046 0-4.03-.36-5.927-1.074-3.834-1.447-5.79-4.492-6.717-8.292-.314-1.284-.51-2.632-.518-3.952-.045-7.73-.033-15.46-.012-23.19.006-2.24.492-4.407 1.303-6.49 1.397-3.603 4.036-5.752 7.794-6.56.775-.168 1.553-.328 2.33-.492h32.066zM217.355 30.693c1.09.262 2.195.466 3.262.797 3.983 1.232 6.148 4.165 7.133 8.025.443 1.744.738 3.58.748 5.376.072 10.928.042 21.855.04 32.78 0 2.004-1.054 3.055-3.056 3.06-1.94.006-3.885.006-5.827 0-1.94-.003-3.005-1.032-3.013-2.978-.02-4.17-.006-8.338-.006-12.506v-1.374H190.81c-.023.433-.067.862-.067 1.292-.005 4.13 0 8.256-.004 12.385-.004 2.2-.987 3.18-3.17 3.183-1.944 0-3.886.01-5.83-.003-1.562-.007-2.547-.853-2.813-2.422-.08-.474-.112-.962-.112-1.443-.007-9.875-.043-19.75.016-29.624.02-3.1.197-6.188 1.306-9.174 1.59-4.283 4.715-6.48 9.1-7.14.31-.045.61-.153.914-.232h27.205zm-.728 21.566c0-2.317.038-4.498-.013-6.676-.033-1.49-.86-2.528-2.254-2.965-.91-.284-1.896-.43-2.852-.437-5.212-.04-10.426-.028-15.64-.01-.722.002-1.455.084-2.163.225-1.68.332-2.75 1.423-2.84 3.14-.117 2.17-.054 4.353-.06 6.53 0 .06.09.12.147.19h25.675zM395.65 30.693l2.367.47c4.023.79 6.775 3.062 8.19 6.946.782 2.153 1.134 4.378 1.224 6.65.128 3.198.173 6.395-.57 9.54-.11.472-.237.94-.382 1.404-1.434 4.647-4.68 7.114-9.402 7.796-.36.053-.72.106-1.076.17-.074.013-.14.074-.318.172.57.875 1.125 1.75 1.7 2.61 2.552 3.793 5.108 7.583 7.66 11.376.136.2.274.404.38.62.492 1.004.092 1.864-1.012 2.105-.43.094-.883.108-1.326.11-2.795.01-5.588-.036-8.38.022-1.31.027-2.18-.44-2.913-1.545-3.194-4.82-6.476-9.59-9.688-14.4-.455-.68-.928-.97-1.762-.956-3.115.05-6.234.02-9.35.022-.396 0-.79.035-1.31.062v1.386c0 4.088.005 8.177 0 12.266-.003 2.117-1.02 3.142-3.103 3.146-1.902.005-3.803.008-5.705-.002-1.893-.008-2.945-1.022-2.957-2.91-.023-3.196-.008-6.394-.008-9.592 0-11.293.027-22.586-.03-33.88-.007-1.608.335-2.837 1.82-3.59h35.953zM369.744 52.29c.29.034.488.076.686.076 6.83.004 13.662.017 20.494-.016.834-.004 1.695-.16 2.492-.418 1.438-.466 2.197-1.603 2.223-3.126.02-1.01.02-2.02 0-3.03-.026-1.603-.76-2.716-2.284-3.21-.83-.27-1.738-.41-2.61-.415-6.67-.03-13.34-.018-20.01-.014-.313 0-.624.04-.99.065v10.09zM336.867 30.693c.467.1.934.213 1.404.297 5.57.977 8.503 3.808 9.71 9.566.338 1.613.53 3.283.543 4.932.06 6.798.078 13.597-.008 20.394-.023 1.883-.28 3.804-.734 5.632-1.386 5.58-4.528 8.264-10.253 8.943-1.12.133-2.258.2-3.39.203-8.173.017-16.347.043-24.52-.02-1.723-.012-3.467-.265-5.162-.613-3.855-.79-6.336-3.202-7.658-6.87-.86-2.39-1.225-4.864-1.232-7.385-.025-6.718-.064-13.436.025-20.15.025-1.966.29-3.966.748-5.876 1.273-5.28 4.47-8.057 9.848-8.818.354-.05.697-.153 1.045-.234h29.637zM321.95 69.125v-.007c3.76 0 7.522.056 11.284-.02 2.2-.047 3.39-1.362 3.49-3.55.008-.202.004-.404.004-.606 0-6.188 0-12.377-.002-18.565 0-.362-.006-.73-.047-1.09-.19-1.686-1.26-2.817-2.937-3.073-.516-.08-1.05-.075-1.572-.075-5.218-.006-10.435-.005-15.653-.004-1.78 0-3.56-.035-5.338.01-2.522.066-3.778 1.375-3.782 3.892-.006 6.39-.006 12.78.002 19.172.002 2.552 1.172 3.84 3.754 3.896 3.598.077 7.198.02 10.797.02M453.705 30.693c.787.158 1.576.316 2.367.47 4.24.837 6.982 3.34 8.314 7.437.72 2.215 1.066 4.48 1.066 6.803.004 10.683.004 21.365.002 32.048-.002 2.276-.955 3.216-3.262 3.22-1.82.003-3.64.005-5.463 0-2.06-.008-3.046-.96-3.058-3.048-.02-4.128-.008-8.255-.008-12.382v-1.396h-25.947v1.286c0 4.046-.064 8.094.027 12.14.045 1.99-1.14 3.59-3.393 3.427-1.81-.132-3.638-.02-5.458-.03-1.883-.01-2.996-1.044-2.998-2.89-.016-10.763-.02-21.526.006-32.29.006-2.645.414-5.237 1.39-7.72 1.472-3.755 4.253-5.892 8.173-6.632.748-.142 1.5-.295 2.248-.44h25.995zm-.06 21.63c0-2.41.072-4.708-.027-6.997-.06-1.37-.91-2.345-2.22-2.76-.796-.254-1.657-.41-2.49-.414-5.462-.035-10.923-.03-16.384-.004-.76.004-1.54.105-2.27.317-1.64.478-2.457 1.59-2.52 3.304-.038.886-.015 1.778-.015 2.667v3.885h25.925z"/></svg>