<svg width="171" height="22" viewBox="0 0 171 22" xmlns="http://www.w3.org/2000/svg"><title>agoragames-old</title><g fill="none" fill-rule="evenodd"><g fill="#000"><g><g><g><path d="M15.62.697V15.31h-1.855v-2.512c-.79.958-1.672 1.68-2.653 2.162-.98.484-2.053.726-3.217.726-2.068 0-3.834-.75-5.298-2.25S.4 10.113.4 7.962c0-2.104.74-3.903 2.217-5.4C4.095 1.07 5.872.32 7.95.32c1.2 0 2.285.255 3.257.766.97.51 1.824 1.276 2.56 2.297V.697h1.852zM8.103 2.134c-1.046 0-2.012.257-2.898.772-.885.514-1.59 1.236-2.113 2.167-.523.93-.785 1.915-.785 2.95 0 1.03.264 2.015.792 2.953.528.938 1.237 1.67 2.126 2.193.89.522 1.845.783 2.864.783 1.03 0 2.003-.26 2.925-.777.92-.52 1.63-1.22 2.126-2.106.498-.885.746-1.883.746-2.99 0-1.692-.557-3.105-1.67-4.24C11.102 2.7 9.73 2.133 8.104 2.133zM32.448.697h1.88v11.645c0 2.05-.178 3.55-.536 4.5-.493 1.343-1.348 2.377-2.565 3.103-1.217.726-2.682 1.088-4.393 1.088-1.253 0-2.38-.177-3.378-.532-1-.353-1.81-.83-2.438-1.427-.627-.598-1.205-1.47-1.733-2.62h2.042c.556.968 1.273 1.684 2.152 2.15.877.464 1.967.697 3.267.697 1.282 0 2.365-.24 3.248-.716.883-.478 1.513-1.078 1.89-1.8.375-.724.563-1.892.563-3.502v-.752c-.708.896-1.572 1.583-2.595 2.062-1.022.48-2.106.72-3.253.72-1.345 0-2.608-.335-3.792-1-1.184-.67-2.098-1.566-2.743-2.694-.646-1.13-.968-2.37-.968-3.72 0-1.354.336-2.614 1.01-3.782.67-1.168 1.6-2.093 2.79-2.773 1.187-.68 2.44-1.02 3.757-1.02 1.093 0 2.113.226 3.06.677.945.453 1.857 1.198 2.735 2.237V.697h-.002zM26.9 2.134c-1.064 0-2.054.258-2.967.773-.914.515-1.63 1.227-2.15 2.135-.518.91-.778 1.892-.778 2.948 0 1.604.538 2.928 1.612 3.977 1.075 1.047 2.467 1.57 4.177 1.57 1.728 0 3.118-.52 4.17-1.558 1.052-1.04 1.578-2.405 1.578-4.098 0-1.102-.242-2.084-.725-2.948-.483-.864-1.168-1.546-2.055-2.048-.886-.5-1.84-.752-2.86-.752zM45.276.32c2.25 0 4.117.816 5.597 2.446 1.346 1.486 2.02 3.246 2.02 5.278 0 2.042-.712 3.826-2.134 5.353-1.423 1.527-3.25 2.29-5.484 2.29-2.243 0-4.075-.763-5.497-2.29-1.423-1.526-2.134-3.31-2.134-5.353 0-2.023.673-3.78 2.018-5.265 1.48-1.64 3.352-2.46 5.612-2.46zm-.007 1.84c-1.564 0-2.908.58-4.03 1.733-1.124 1.155-1.686 2.552-1.686 4.19 0 1.057.255 2.042.77 2.955.51.914 1.203 1.62 2.074 2.115.872.498 1.83.746 2.872.746 1.043 0 2-.25 2.87-.747.873-.496 1.564-1.2 2.077-2.115.512-.913.768-1.898.768-2.955 0-1.638-.563-3.035-1.69-4.19-1.13-1.154-2.472-1.732-4.026-1.732zM55.658.697h1.92v2.135c.574-.84 1.178-1.47 1.814-1.887C60.028.53 60.69.32 61.38.32c.52 0 1.074.166 1.666.497l-.98 1.585c-.395-.17-.726-.255-.995-.255-.625 0-1.23.257-1.812.772-.583.514-1.025 1.313-1.33 2.396-.233.833-.35 2.517-.35 5.05v4.943h-1.92V.696zM75.188.697h3.667V15.31h-3.667v-1.545c-.715.682-1.433 1.172-2.153 1.47-.72.302-1.5.45-2.34.45-1.888 0-3.52-.73-4.897-2.195-1.377-1.463-2.066-3.283-2.066-5.46 0-2.256.666-4.105 2-5.547C67.063 1.043 68.68.32 70.586.32c.876 0 1.7.166 2.468.497.77.33 1.48.83 2.133 1.49V.698zm-3.855 3.01c-1.134 0-2.075.4-2.825 1.2-.75.803-1.124 1.83-1.124 3.084 0 1.264.38 2.302 1.145 3.117.762.815 1.7 1.223 2.817 1.223 1.15 0 2.106-.4 2.865-1.202.758-.802 1.138-1.852 1.138-3.15 0-1.27-.38-2.3-1.138-3.09-.76-.788-1.72-1.182-2.88-1.182zM93.36.697h3.653v12.518c0 2.472-.496 4.29-1.49 5.453-1.334 1.576-3.345 2.364-6.03 2.364-1.434 0-2.638-.18-3.614-.537-.978-.358-1.8-.884-2.472-1.58-.672-.692-1.168-1.536-1.49-2.53h4.042c.358.412.82.723 1.384.934.563.21 1.23.315 2 .315.985 0 1.778-.152 2.38-.457.6-.305 1.02-.7 1.268-1.182.246-.484.37-1.316.37-2.5-.645.647-1.32 1.11-2.03 1.392-.706.282-1.508.423-2.402.423-1.96 0-3.618-.706-4.97-2.12-1.352-1.416-2.028-3.207-2.028-5.373 0-2.32.716-4.182 2.15-5.588C85.378.957 86.927.32 88.727.32c.842 0 1.637.155 2.385.464.747.31 1.497.817 2.25 1.524V.698h-.002zm-3.8 3.05c-1.155 0-2.108.387-2.86 1.16-.753.776-1.13 1.75-1.13 2.922 0 1.217.385 2.215 1.156 2.994.77.78 1.737 1.17 2.9 1.17 1.138 0 2.075-.38 2.814-1.143.74-.76 1.108-1.76 1.108-2.995 0-1.217-.37-2.207-1.115-2.968-.743-.76-1.7-1.14-2.873-1.14zM115.523.697V15.31h-1.854v-2.512c-.79.958-1.673 1.68-2.654 2.162-.98.484-2.053.726-3.216.726-2.068 0-3.835-.75-5.3-2.25-1.463-1.5-2.195-3.323-2.195-5.474 0-2.104.74-3.903 2.217-5.4C104 1.07 105.776.32 107.854.32c1.2 0 2.285.255 3.258.766.97.51 1.823 1.276 2.558 2.297V.697h1.853zm-7.515 1.437c-1.046 0-2.012.257-2.897.772-.885.514-1.59 1.236-2.113 2.167-.522.93-.784 1.915-.784 2.95 0 1.03.265 2.015.79 2.953.528.938 1.238 1.67 2.128 2.193.89.522 1.846.783 2.866.783 1.028 0 2.003-.26 2.924-.777.922-.52 1.63-1.22 2.126-2.106.497-.886.745-1.883.745-2.99 0-1.692-.556-3.105-1.67-4.24-1.114-1.138-2.484-1.706-4.112-1.706zM119.74.697h1.88v2.525c.655-.93 1.327-1.612 2.018-2.042.95-.573 1.95-.86 3-.86.707 0 1.38.14 2.016.417.636.278 1.157.647 1.56 1.108.404.46.753 1.122 1.05 1.98.625-1.145 1.406-2.016 2.344-2.61.938-.597 1.948-.895 3.028-.895 1.01 0 1.9.255 2.674.766.773.51 1.348 1.222 1.722 2.136.376.913.563 2.284.563 4.11v7.98h-1.922V7.33c0-1.567-.11-2.644-.334-3.23-.225-.586-.605-1.06-1.145-1.417-.54-.358-1.186-.537-1.936-.537-.91 0-1.743.27-2.497.806-.755.537-1.307 1.253-1.654 2.15-.348.895-.522 2.39-.522 4.485v5.72h-1.88V7.83c0-1.764-.11-2.96-.33-3.593-.22-.63-.602-1.137-1.148-1.517-.546-.38-1.195-.57-1.947-.57-.868 0-1.68.26-2.438.785-.757.523-1.316 1.23-1.68 2.115-.362.886-.543 2.243-.543 4.07v6.19h-1.88V.698zM157.858 10.462l1.586.833c-.52 1.02-1.12 1.844-1.803 2.47-.68.628-1.445 1.105-2.297 1.432-.852.327-1.815.49-2.89.49-2.385 0-4.25-.78-5.594-2.344-1.345-1.562-2.018-3.33-2.018-5.3 0-1.853.57-3.504 1.707-4.955 1.443-1.845 3.374-2.767 5.794-2.767 2.49 0 4.48.946 5.97 2.835 1.057 1.334 1.595 3 1.612 4.996h-13.15c.036 1.7.58 3.09 1.628 4.176 1.05 1.085 2.345 1.627 3.887 1.627.745 0 1.47-.13 2.173-.388.703-.258 1.302-.603 1.795-1.03.493-.427 1.027-1.12 1.6-2.073zm0-3.936c-.25-1.003-.616-1.804-1.095-2.404-.48-.6-1.114-1.083-1.903-1.45-.79-.368-1.618-.552-2.488-.552-1.434 0-2.667.46-3.698 1.383-.753.672-1.322 1.68-1.708 3.022h10.892zM170.78 2.295l-1.21 1.25c-1.005-.977-1.987-1.465-2.947-1.465-.61 0-1.135.202-1.57.604-.435.403-.652.873-.652 1.41 0 .475.18.927.54 1.357.358.44 1.112.955 2.26 1.545 1.4.726 2.352 1.424 2.855 2.096.493.682.74 1.446.74 2.298 0 1.2-.423 2.217-1.265 3.05-.843.832-1.897 1.248-3.16 1.248-.845 0-1.648-.184-2.416-.55-.767-.367-1.4-.873-1.903-1.52l1.184-1.342c.96 1.083 1.98 1.625 3.055 1.625.753 0 1.395-.243 1.925-.727s.794-1.052.794-1.706c0-.537-.176-1.016-.525-1.437-.35-.412-1.14-.93-2.37-1.56-1.318-.68-2.216-1.35-2.69-2.014-.476-.662-.714-1.42-.714-2.27 0-1.11.38-2.032 1.138-2.767.758-.735 1.715-1.103 2.872-1.103 1.342.004 2.697.662 4.06 1.978z"/></g></g></g></g></g></svg>