<svg width="47" height="53" viewBox="0 0 47 53" xmlns="http://www.w3.org/2000/svg"><title>hydra-new</title><defs><linearGradient x1=".33%" y1="-1203.6%" x2=".33%" y2="749.52%" id="a"><stop stop-color="#5CC3C8" offset="0%"/><stop stop-color="#5492B9" offset="38.62%"/><stop stop-color="#4F65A8" offset="80.7%"/><stop stop-color="#4D53A3" offset="100%"/></linearGradient><linearGradient x1="49.999%" y1="-26.342%" x2="49.999%" y2="76.166%" id="b"><stop stop-color="#5CC3C8" offset="0%"/><stop stop-color="#5492B9" offset="38.62%"/><stop stop-color="#4F65A8" offset="80.7%"/><stop stop-color="#4D53A3" offset="100%"/></linearGradient></defs><g fill="none" fill-rule="evenodd"><g><g><g id="Group" fill="#C7C6C6"><g id="Shape"><path d="M11.52 12.984V10.49c-1.512.462-3.016 1.007-4.507 1.634v2.493c-.36.15-.72.308-1.078.47V9.223c.358-.16.718-.318 1.078-.47v2.38c1.49-.627 2.995-1.172 4.508-1.633V7.123c.367-.11.733-.218 1.1-.32v5.863c-.367.1-.733.208-1.1.32zM40.752 14.55c-.812-1.918-1.627-3.812-2.445-5.682-.817 1.292-1.637 2.608-2.46 3.95-.392-.114-.783-.223-1.176-.325 1.025-1.687 2.046-3.335 3.062-4.945.413.14.827.286 1.24.44 1.012 2.328 2.02 4.694 3.02 7.098-.413-.185-.826-.364-1.24-.536zM19.616 11.333V5.47c1.444-.15 2.89-.227 4.337-.227.432 0 .8.032 1.1.09.31.06.57.152.777.27.218.126.39.284.51.467.115.174.2.38.253.612.05.215.078.46.087.73.01.257.012.54.012.852 0 .312-.004.596-.012.85-.008.27-.04.51-.087.72-.055.225-.138.42-.255.58-.12.17-.29.308-.51.414-.206.1-.467.172-.777.215-.297.042-.667.062-1.098.062-1.446 0-2.892.077-4.336.228zm4.338-1.217c.296 0 .55-.006.754-.017.188-.013.343-.038.462-.08.098-.033.17-.08.22-.143.054-.07.096-.17.123-.296.032-.145.052-.33.058-.546.007-.232.01-.507.01-.83 0-.32-.003-.597-.01-.827-.005-.22-.024-.404-.057-.55-.027-.13-.07-.234-.124-.31-.05-.064-.12-.115-.22-.155-.12-.048-.272-.08-.46-.1-.203-.02-.457-.03-.756-.03-1.075 0-2.15.042-3.222.125v3.883c1.073-.08 2.147-.124 3.222-.124zM33.006 12.094v-1.23c0-.163-.004-.302-.01-.418-.003-.097-.02-.18-.044-.25-.02-.05-.048-.094-.088-.13-.032-.03-.103-.08-.232-.136-.12-.05-.283-.103-.483-.153-.203-.05-.456-.104-.755-.158-.954-.173-1.91-.31-2.87-.417v2.153c-.37-.04-.742-.077-1.113-.108V5.386c1.368.114 2.734.295 4.095.544.425.078.786.166 1.08.257.3.094.546.196.748.305.213.116.382.244.504.38s.218.292.276.457c.055.15.087.313.095.484.01.152.015.318.015.5 0 .237-.017.448-.05.623-.038.188-.103.344-.19.463-.084.115-.196.2-.333.253.118.114.214.243.28.387.074.153.124.326.147.512.02.17.03.354.03.566v1.23c-.368-.088-.735-.173-1.104-.254zm-1.5-3.444c.3.055.555.1.758.13.192.03.355.043.483.045.13 0 .196-.02.232-.037.037-.02.065-.05.086-.09.023-.06.04-.134.046-.23.004-.115.01-.253.008-.414 0-.15-.003-.28-.008-.388-.005-.086-.02-.157-.042-.213-.017-.04-.043-.075-.082-.106-.034-.027-.104-.073-.238-.127-.122-.05-.284-.098-.482-.145-.206-.048-.46-.1-.76-.156-.992-.182-1.986-.328-2.982-.437v1.73c.995.11 1.99.256 2.98.437zM19.08 5.53c-.397.048-.793.1-1.19.158-.575 1.18-1.15 2.372-1.726 3.575-.577-.986-1.152-1.96-1.727-2.922-.423.1-.846.204-1.267.314.77 1.265 1.542 2.552 2.315 3.86v1.46c.42-.087.843-.168 1.265-.24v-1.46c.775-1.602 1.552-3.183 2.33-4.743z"/></g><path d="M46.788 7.227l-.085-1.31-1.182-.575C38.78 2.07 31.54.41 23.996.41 16.38.41 9.075 2.1 2.28 5.436l-1.175.577-.083 1.308C.954 8.41.92 9.475.92 10.49c0 8.717 2.296 17.118 6.487 24.46v.007l.025.035.08.14-.005-.032c1.28 1.808 6.077 7.354 13.883 5 6.957-2.097 6.997-7.783 6.997-7.783-.14 1.675-3.46 6.378-10.05 6.325-6.34-.053-9.882-6.478-10.56-7.835-2.948-6.15-4.6-13.04-4.6-20.316 0-1.017.037-2.024.1-3.025C9.53 4.395 16.56 2.67 23.997 2.67c7.362 0 14.33 1.692 20.54 4.706.065 1.03.103 2.067.103 3.114 0 5.848-1.067 11.446-3.015 16.613-.253-.388-.52-.767-.8-1.135-1.05-1.377-2.28-2.612-3.652-3.668.4-.058.804-.104 1.21-.138-1.654-1.546-3.576-2.81-5.69-3.71.726-.103 1.467-.168 2.22-.19-2.767-1.722-5.992-2.774-9.45-2.927.715-.23 1.45-.417 2.2-.562-1.216-.237-2.47-.362-3.755-.362-7.505 0-14.022 4.23-17.3 10.437.147.446.3.89.46 1.33.052.143.102.286.154.427 1.294-.8 2.69-1.446 4.17-1.91 3.38-3.71 8.252-6.04 13.668-6.04.948 0 1.878.072 2.788.21-.482.23-.953.48-1.41.75 2.858.21 5.536 1.07 7.888 2.437-.495.138-.98.294-1.458.47 2.512 1.216 4.704 2.985 6.426 5.147-.045 2.91-.762 5.66-2.004 8.097-3.474 5.448-8.035 10.136-13.38 13.754-3.324-2.25-6.34-4.915-8.985-7.917-1.952-.545-3.622-1.54-4.88-2.522 3.38 4.755 7.62 8.942 12.6 12.31l1.265.857 1.266-.856C38.778 42.182 46.9 26.894 46.9 10.492c-.003-1.052-.04-2.148-.112-3.266zm-33.293 11.87c-.043.27.042.763.042.763-1.072.34-2.69 1.095-2.69 1.095 1.034-1.02 2.18-1.928 3.42-2.7 0 0-.73.574-.772.843z" id="Shape"/></g><g><path d="M22.822 2.058l-.005.002h.003l.002-.002z" id="Shape" fill="url(#a)" transform="translate(9 20)"/><path d="M26.384 21.902c.38-.54.7-1.125.963-1.732 1.883-4.393 1.82-7.586 1.82-11.55 0-.184-.003-.365-.01-.545-1.995-2.412-4.59-4.31-7.56-5.463.4-.198.806-.382 1.22-.552C20.657 1.174 18.29.686 15.81.686c-.492 0-.98.02-1.465.057V.74c.512-.416 1.046-.803 1.6-1.163h-.006c-1.556.002-3.113.202-4.63.612C6.27 1.545 1.883 5.063-.476 9.725l.77 1.618c2.874-2.02 6.29-3.16 9.77-3.327v.002c-.103-.535-.23-1.06-.378-1.577l-.01-.005c.333-.018.67-.028 1.01-.028 1.777 0 3.498.252 5.125.722 4.186 1.158 6.6 6.63.407 12.035-6.19 5.404-15.175-.093-15.175-.093S8.455 29.096 14.91 32.24c0 0 7.555-4.767 11.474-10.338zM5.814 3.927s-.716.77-.737.934c-.036.296.083.71.083.71-1.023.415-1.91 1.07-2.844 1.656 0 0 1.78-2.267 3.5-3.3z" fill="url(#b)" transform="translate(9 20)"/></g></g></g></g></svg>