<svg xmlns="http://www.w3.org/2000/svg" width="178.076" height="27.163" viewBox="43.962 15.898 178.076 27.163" enable-background="new 43.962 15.898 178.076 27.163"><g><path fill="#F6F8F8" d="M98.958 37.627v-9.52c0-.362-.155-.518-.518-.518h-3.57c-.362 0-.517.154-.517.517v9.52H91.61v-9.52c0-.362-.154-.518-.516-.518h-3.57c-.363 0-.518.154-.518.517v9.52h-2.742v-12.78h2.742v.83c0-.518.465-.83 1.345-.83h2.743c.93 0 1.552.312 1.914.932.465-.622 1.086-.932 1.914-.932h3.57c.88 0 1.605.31 2.277.983.673.622.983 1.398.983 2.277v9.52h-2.792zM118.05 37.627V36.8c0 .517-.467.827-1.346.827h-5.484c-.88 0-1.656-.31-2.328-.932-.62-.672-.932-1.448-.932-2.328v-.982c0-.93.518-1.552 1.552-1.914l8.537-2.742v-.362c0-.518-.208-.828-.57-.828h-6.26c-.362 0-.518.155-.518.517V29.4h-2.742v-1.345c0-.93.31-1.707.932-2.328s1.396-.93 2.328-.93h6.26c.93 0 1.708.31 2.328.93.62.62.93 1.397.93 2.328v9.57l-2.69.002zm0-6.105l-6.21 1.862c-.724.207-1.137.568-1.137 1.035 0 .36.155.516.518.516h6.26c.363 0 .57-.207.57-.568v-2.846zM136.57 37.627V36.8c0 .517-.467.827-1.346.827h-5.433c-.88 0-1.655-.31-2.327-.932-.62-.672-.93-1.448-.93-2.328v-6.26c0-.93.31-1.708.93-2.328.62-.622 1.397-.932 2.328-.932h5.434c.88 0 1.346.26 1.346.828v-9.778h2.69v21.73h-2.69zm0-9.52c0-.362-.207-.518-.57-.518h-6.26c-.36 0-.517.154-.517.517v6.26c0 .36.155.568.518.568H136c.363 0 .57-.207.57-.568v-6.26zM158.662 42.128c-.62.62-1.396.933-2.328.933h-6.777v-2.74h6.777c.36 0 .568-.156.568-.52v-2.948c0 .518-.467.828-1.346.828h-5.433c-.88 0-1.655-.312-2.328-.932-.62-.674-.93-1.448-.93-2.328v-6.312c0-.93.31-1.708.93-2.328.62-.62 1.397-.93 2.328-.93h5.433c.88 0 1.346.258 1.346.827v-.828h2.69V39.8c.053.93-.31 1.707-.93 2.328zm-1.76-14.02c0-.363-.207-.52-.568-.52h-6.26c-.362 0-.52.156-.52.52v6.26c0 .36.156.567.52.567h6.26c.36 0 .568-.207.568-.568v-6.26zM166.94 37.627v-21.73h2.74v21.73h-2.74zM188.307 36.695c-.62.62-1.396.932-2.328.932h-6.26c-.88 0-1.657-.31-2.33-.932-.62-.672-.93-1.448-.93-2.328v-6.26c0-.93.31-1.708.93-2.328.622-.62 1.397-.932 2.33-.932h6.26c.93 0 1.708.31 2.327.93.62.622.932 1.398.932 2.33v6.26c-.004.932-.312 1.706-.933 2.327zm-1.76-8.588c0-.362-.206-.518-.568-.518h-6.26c-.362 0-.52.154-.52.517v6.26c0 .36.155.568.52.568h6.26c.36 0 .568-.207.568-.568v-6.26zM199.275 27.59c-.362 0-.52.155-.52.518v9.52h-2.74v-12.78h2.74v.828c0-.517.467-.828 1.346-.828h3.417v2.742h-4.242zM221.057 42.128c-.62.62-1.396.933-2.328.933h-6.778v-2.74h6.777c.36 0 .567-.156.567-.52v-2.948c0 .518-.465.828-1.345.828h-5.433c-.882 0-1.657-.312-2.33-.932-.62-.674-.932-1.448-.932-2.328v-9.572H212v9.52c0 .36.155.567.52.567h6.26c.36 0 .567-.207.567-.568v-9.52h2.69V39.8c-.05.93-.36 1.707-.98 2.328zM62.225 34.68l-6.88 3.672-4.554-2.432-2.275-1.24v-2.434l6.88 3.674 6.83-3.674zM48.515 39.54v-2.43l6.83 3.673 4.553-2.432 2.276-1.24v2.43l-6.312 3.416c-.155.052-.31.104-.517.104-.208 0-.363-.053-.518-.104l-6.312-3.415zM55.396 33.438l9.106-4.863v9.777l1.655-.88c.362-.206.62-.57.62-.98V24.9l-11.38 6.104L43.96 24.9v11.538c0 .41.26.827.62.98l1.656.88V28.57l9.158 4.868z"/></g></svg>