<svg width="167" height="23" viewBox="0 0 167 23" xmlns="http://www.w3.org/2000/svg"><title>namco</title><g fill="none" fill-rule="evenodd"><g fill="#F7F8F8"><g><path d="M164.445 4.796c.88 0 1.678-.798 1.678-1.678 0-.958-.8-1.756-1.678-1.756-.958 0-1.757.798-1.757 1.756 0 .88.8 1.678 1.757 1.678zm-1.996-1.678c0-1.117.878-1.997 1.995-1.997 1.04 0 1.917.88 1.917 1.998 0 1.04-.878 1.916-1.917 1.916-1.117 0-1.996-.877-1.996-1.916zM164.686 2.24c.08 0 .16.08.16.16.08 0 .08.08.08.158 0 .162 0 .24-.08.32-.08.08-.24.08-.4.08h-.48v-.72H164.687zm.24.878c.16-.08.16-.16.238-.24.08-.08.08-.158.08-.32 0-.16-.08-.32-.16-.398-.158-.08-.318-.16-.56-.16h-.878v2.157h.32v-.96h.478l.48.96h.398l-.64-.96c.164 0 .244-.08.244-.08zM26.434 21.808h-7.188V6.872H7.504v14.936H.316V.802h20.127c3.274 0 5.99 2.716 5.99 6.07v14.936zM35.54 21.808c-3.276 0-6.07-1.838-6.07-6.07V14.3c0-4.15 2.794-6.07 6.07-6.07h14.456V5.837h-18.77V.804h20.046c3.354 0 6.07 2.716 6.07 6.07v14.935H35.54v-.002zm1.517-5.112h12.938v-3.274H37.057v3.274zM68.524 6.872v14.936h-7.27V.802h31.788c3.354 0 6.07 2.716 6.07 6.07v14.935h-7.188V6.872h-8.066v14.936h-7.27V6.872h-8.064zM108.698 21.808c-3.354 0-6.07-2.715-6.07-6.07V6.873c0-3.353 2.716-6.07 6.07-6.07h19.728v5.59h-18.45v9.904h18.45v5.512h-19.728zM138.17 22.445c-3.355 0-6.07-2.713-6.07-6.068V6.232c0-3.354 2.716-6.07 6.07-6.07h17.49c3.355 0 6.07 2.715 6.07 6.07v10.145c0 3.355-2.716 6.068-6.07 6.068h-17.49zm1.197-5.27h15.096V5.436h-15.096v11.74zM164.445 4.796c.88 0 1.678-.798 1.678-1.678 0-.958-.8-1.756-1.678-1.756-.958 0-1.757.798-1.757 1.756 0 .88.8 1.678 1.757 1.678zm-1.996-1.678c0-1.117.878-1.997 1.995-1.997 1.04 0 1.917.88 1.917 1.998 0 1.04-.878 1.916-1.917 1.916-1.117 0-1.996-.877-1.996-1.916zM164.686 2.24c.08 0 .16.08.16.16.08 0 .08.08.08.158 0 .162 0 .24-.08.32-.08.08-.24.08-.4.08h-.48v-.72H164.687zm.24.878c.16-.08.16-.16.238-.24.08-.08.08-.158.08-.32 0-.16-.08-.32-.16-.398-.158-.08-.318-.16-.56-.16h-.878v2.157h.32v-.96h.478l.48.96h.398l-.64-.96c.164 0 .244-.08.244-.08z"/></g></g></g></svg>