<svg xmlns="http://www.w3.org/2000/svg" width="53.14" height="46.25" viewBox="0 0 53.14 46.25"><g fill="#F7F9F9"><path d="M16.374 39.652c-.552-.36-1.147-.54-2.16-.54-1.812 0-3.018 1.317-3.018 3.073 0 1.848 1.33 3.072 2.96 3.072.777 0 .98-.078 1.26-.135v-2.387h-1.654v-.924h2.78v4.09c-.427.146-1.17.35-2.397.35-2.488 0-4.143-1.602-4.143-4.098 0-2.422 1.757-4.03 4.154-4.03 1.15 0 1.655.167 2.308.392l-.09 1.138M21.51 43.887c0 .855-.553 1.508-1.6 1.508-.484 0-1.07-.328-1.07-.936 0-1.013 1.418-1.103 1.993-1.103.226 0 .45.02.676.02v.51m-3.087-2.207c.428-.36 1.07-.586 1.667-.586 1.06 0 1.42.506 1.42 1.496-.418-.02-.71-.02-1.127-.02-1.092 0-2.67.45-2.67 1.89 0 1.25.868 1.79 2.108 1.79.968 0 1.53-.528 1.778-.878h.023v.744h.99c-.02-.172-.044-.473-.044-1.127v-2.376c0-1.566-.664-2.377-2.31-2.377-.73 0-1.36.227-1.89.54l.057.903zM24.29 40.37h.99v.837h.02c.407-.666.98-.97 1.824-.97.666 0 1.328.34 1.633 1.114.395-.82 1.262-1.114 1.78-1.114 1.462 0 1.992.947 1.992 2.197v3.682h-1.06V42.69c0-.708-.167-1.597-1.024-1.597-1.08 0-1.51 1.06-1.51 2.127v2.895h-1.06V42.69c0-.708-.165-1.597-1.022-1.597-1.08 0-1.51 1.06-1.51 2.127v2.895h-1.057V40.37M34.993 42.69c.08-.74.508-1.597 1.543-1.597.912 0 1.432.72 1.432 1.598h-2.975m3.66 2.128c-.258.215-1.068.576-1.768.576-1 0-1.893-.777-1.893-1.916l4.082-.002c.016-.113.016-.225.01-.334-.074-1.678-.73-2.904-2.525-2.904-1.622 0-2.692 1.203-2.692 2.904 0 1.87.936 3.107 2.973 3.107.948 0 1.407-.226 1.813-.374v-1.058zM40.48 44.988c.413.27 1.01.406 1.313.406.486 0 1.082-.203 1.082-.822 0-1.047-2.488-.957-2.488-2.566 0-1.193.89-1.768 2.027-1.768.494 0 .9.1 1.316.225l-.09.924c-.236-.146-.867-.293-1.115-.293-.54 0-1.014.225-1.014.697 0 1.173 2.49.833 2.49 2.67 0 1.228-.98 1.79-2.005 1.79-.54 0-1.092-.057-1.574-.316l.06-.946M19.135 13.252h-.018l-.88 2.695h1.71l-.812-2.695M20.444 21.643l-.886 2.697h1.728l-.823-2.697h-.02M33.07 13.19h-.704v4.17h.705c1.36 0 2.12-.713 2.12-2.086 0-1.373-.79-2.084-2.12-2.084M40.364 13.252h-.02l-.88 2.695h1.713l-.813-2.695M13.726 16.617c0-.75-.712-.817-1.338-.817h-.558v1.618h.54c.665 0 1.356-.098 1.356-.8M13.552 13.824c0-.634-.586-.693-1.194-.693h-.528v1.424h.51c.596 0 1.212-.15 1.212-.73M43.132 21.464c-1.117 0-1.56 1.008-1.56 2.204 0 1.135.442 2.205 1.56 2.205 1.115 0 1.56-1.07 1.56-2.205-.002-1.195-.445-2.204-1.56-2.204"/><path d="M53.134 18.418h-3.527c-.137-.34-.258-.688-.363-1.04h3.783c-.033-.185-.074-.368-.127-.552h-3.805c-.078-.34-.137-.687-.176-1.04h3.62c-.076-.184-.164-.37-.256-.552h-3.408c-.027-.29.012-.734.055-1.04h2.747c-.123-.185-.25-.37-.387-.55h-2.262c.07-.34.158-.687.264-1.042h1.15l-.504-.55h-.478c.13-.4.338-1.17.393-1.587H48.47c-.205-.215-.404-.426-.62-.65 0 .002 2.083 0 2.083 0 .025-.363.023-.72 0-1.076h-3.137c-.217-.218-.44-.437-.664-.65h3.73c-.06-.365-.15-.725-.267-1.075 0 0-4.63-.006-4.623 0-.254-.225-.492-.43-.754-.65h5.13c-.16-.372-.358-.73-.583-1.077 0 0-5.87 0-5.87.002-.286-.226-.57-.44-.858-.653h6.25c-.348-.415-.756-.77-1.207-1.077h-6.576c-.352-.232-.695-.448-1.03-.65h6.4c-2.06-.88-4.71-.987-7.097-.554-.37.066-1.56.34-1.768.385-.07.02-.48.116-1.153.28h-17.95c-.366.18-.73.363-1.097.55h16.833c-1.146.293-2.5.642-4.003 1.042.008-.002-14.813 0-14.813 0-.342.183-.68.367-1.01.55h13.79c-1.196.33-2.44.678-3.683 1.04H12.02c-.298.183-.59.368-.877.553h10.84c-1.108.31-2.417.67-3.763 1.046.005-.002-8.565-.006-8.565-.006-.24.183-.475.366-.702.553h7.312c-1.284.362-2.532.72-3.604 1.04H7.795c-.18.18-.356.363-.528.55h3.63c-.807.245-2.062.78-2.645 1.042H6.415c-.133.18-.26.364-.383.552l1.062-.002c-.536.27-1.06.554-1.568.86-.463.275-.912.568-1.344.88l.93-.004c-.09.214-.175.43-.252.653H3.325c-.436.353-.83.71-1.18 1.076h2.388c-.053.214-.103.43-.146.65H1.563C1.27 16 1.02 16.36.806 16.72h3.417c-.025.22-.046.433-.056.65H.474c-.157.357-.278.715-.357 1.075h4.038c.008.218.02.437.04.65H.018c-.033.358-.024.717.02 1.078H4.34c.04.216.084.434.133.65H.17c.096.36.23.72.403 1.077h4.21c.073.22.148.432.233.65H.933c.22.358.482.718.785 1.075h3.786c.11.22.223.436.348.65h-3.54c.352.36.746.72 1.183 1.078l3.04-.002c.15.22.31.437.48.655H4.337c.39.297 1.162.773 1.715 1.074h1.875c.136.15.475.497.63.65H7.35c.656.302 1.53.655 2.062.833.166.156.335.316.505.48h1.09c.846.255 3.87.83 5.495 1.038h-5.436c.213.183.51.42.698.554h8.802c1.49.19 2.884.37 4.065.564.753.123 1.614.285 2.556.475H13.29c.3.19.606.373.92.553h15.72c1.87.37 3.91.754 5.972 1.04H16.25c.438.196.89.382 1.36.55 0 0 23.393-.006 24.024 0 2.26.012 4.385-.242 6.166-.906h-6.605c.357-.21.715-.426 1.068-.65h6.934c.53-.307 1.02-.662 1.45-1.076h-6.79c.297-.213.592-.428.883-.65h6.506c.262-.33.502-.688.703-1.076 0 0-5.866-.002-5.872 0 .256-.217.5-.43.746-.652h5.424c.135-.338.256-.693.348-1.074h-4.643c.213-.21.625-.65.625-.65h4.148c.064-.324.1-.834.098-1.074h-3.3c.18-.22.35-.436.52-.652h2.73c-.048-.36-.138-.73-.247-1.078h-1.71c.177-.266.417-.65.417-.65h1.05c-.138-.34-.49-1.076-.73-1.47h.48c.088-.173.188-.36.287-.552h-1.083c-.2-.346-.4-.693-.59-1.04h2.16c.04-.103.12-.396.158-.55H50.35c-.18-.348-.352-.693-.51-1.043h3.283c.01-.186.017-.37.01-.555m-8.747-6.59h1.818v6.893h-1.818V11.83zm-5.14 0h2.233l2.628 6.893H42.11l-.506-1.47h-2.56l-.54 1.47h-1.848l2.59-6.892zm-16.01 0h2.32l2.307 4.68h.02l-.027-4.68h1.66v6.893h-2.258l-2.39-4.71h-.018l.056 4.71h-1.67V11.83zm-13.222 0h3.14c1.267 0 2.214.562 2.214 1.747 0 .87-.438 1.353-1.2 1.61v.022c.908.186 1.376.68 1.376 1.52 0 1.646-1.435 1.994-2.655 1.994h-2.877V11.83zm6.34 15.285H14.07l-2.407-4.71h-.02l.06 4.71h-1.69V20.22h2.34l2.332 4.684h.022l-.03-4.684h1.677v6.893zm-.922-8.392l2.59-6.892h2.228l2.63 6.893h-1.995l-.508-1.47H17.82l-.54 1.47h-1.848zm6.798 8.393l-.512-1.47h-2.59l-.538 1.47h-1.87l2.617-6.893h2.252l2.657 6.893H22.23zm10.542 0h-1.798l.03-5.292h-.02l-1.49 5.293h-1.688l-1.414-5.292h-.018l.037 5.293h-1.796V20.22h2.896l1.193 4.583h.02l1.264-4.583h2.784v6.893zM30.55 18.72V11.83h2.482c2.375 0 4.035.75 4.035 3.418 0 2.575-1.71 3.475-4.035 3.475H30.55zm6.797 8.514c-1.838 0-3.963-.93-3.963-3.535 0-2.4 1.68-3.6 3.95-3.6.704 0 1.384.16 2.046.358l-.148 1.49c-.592-.322-1.164-.484-1.795-.484-1.305 0-2.154.95-2.154 2.235 0 1.353.957 2.173 2.3 2.173.603 0 1.216-.162 1.72-.357l.09 1.44c-.525.128-1.107.278-2.046.278m5.785 0c-2.254 0-3.46-1.373-3.46-3.566 0-2.21 1.187-3.567 3.46-3.567 2.27 0 3.455 1.358 3.455 3.568 0 2.193-1.207 3.566-3.455 3.566M25.18.387h7.796c-3.58-.615-5.738-.407-7.796 0M36.577 1.427H21.553c-.465.173-.926.358-1.385.553h17.647c-.398-.197-.81-.38-1.238-.553M35.345 34.855H21.67c4.13.627 9.467.74 13.675 0"/></g></svg>