<svg width="163" height="41" viewBox="0 0 163 41" xmlns="http://www.w3.org/2000/svg"><title>nintendo</title><g fill="none" fill-rule="evenodd"><g fill="#F7F8F8"><g><path d="M141.475.334h-120.2C8.556.306.01 9.45.01 20.414c0 10.963 8.525 20.005 21.284 20.008h120.16c12.76-.003 21.286-9.045 21.286-20.007 0-10.964-8.546-20.11-21.265-20.08zm-.062 35.172H21.333c-10.14.037-16.302-6.77-16.302-15.12s6.203-15.102 16.304-15.12h120.08c10.103.02 16.305 6.77 16.305 15.12s-6.166 15.157-16.307 15.12zM16.154 10.91h5.877l8.138 13.157-.004-13.158h5.832V29.78h-5.824l-8.178-13.16v13.16h-5.842l.002-18.873zM67.715 12.85h5.68v2.54h3.074v1.864h-3.075l.004 12.528h-5.685l.003-12.528h-3.084v-1.862h3.086l-.005-2.54zM39.246 17.23h5.675v12.552h-5.674v-12.55zM39.233 10.904h5.688v3.86h-5.687v-3.86zM140.975 23.406s-.004 1.895-.004 2.657c0 2-1.18 2.826-2.318 2.826-1.136 0-2.324-.828-2.324-2.827 0-.763.004-2.707.004-2.707s.004-1.853.004-2.616c0-1.992 1.185-2.81 2.316-2.81 1.13 0 2.32.818 2.32 2.81 0 .763 0 2.167.003 2.674v-.008zm-2.28-7.032c-4.58 0-8.29 3.156-8.29 7.05 0 3.888 3.71 7.045 8.29 7.045 4.584 0 8.295-3.158 8.295-7.047 0-3.893-3.71-7.05-8.294-7.05zM122.953 10.91h5.603v18.87h-5.61l-.004-.723c-2.17 1.362-4.624 1.36-6.534.47-.51-.24-3.88-1.857-3.88-6.222 0-3.314 3.125-6.93 7.214-6.572 1.347.12 2.305.61 3.212 1.12v-6.944zm.04 12.533V21.2c0-1.94-1.338-2.435-2.222-2.435-.903 0-2.226.495-2.226 2.434 0 .64.004 2.238.004 2.238s-.004 1.562-.004 2.23c0 1.94 1.322 2.446 2.227 2.446.885 0 2.224-.506 2.224-2.446v-2.225zM58.206 16.652c2.12-.06 6.428 1.33 6.396 6.3-.006.88-.002 6.826-.002 6.826h-5.638v-8.243c0-1.094-1.046-2.31-2.592-2.31-1.547 0-2.695 1.215-2.695 2.31l.006 8.243h-5.634l-.004-12.548 5.64-.004s-.007 1.01 0 1.318c1.086-1.035 2.65-1.837 4.524-1.892zM104.328 16.652c2.118-.06 6.425 1.33 6.396 6.3-.008.88-.005 6.826-.005 6.826h-5.64v-8.243c0-1.094-1.045-2.31-2.59-2.31-1.546 0-2.698 1.215-2.698 2.31l.01 8.243h-5.636l.005-12.548 5.63-.004s-.008 1.01 0 1.318c1.09-1.035 2.65-1.837 4.528-1.892zM81.755 21.605c-.01-1.1.013-1.833.374-2.463.445-.773 1.26-1.14 2-1.144h-.005c.742.004 1.553.37 1.995 1.144.36.63.38 1.364.373 2.463h-4.738zm4.714 3.786s.004.057.004.762c0 2.297-1.51 2.81-2.345 2.81-.84 0-2.378-.513-2.378-2.81 0-.688.008-2.59.008-2.59s10.688.003 10.688 0c0-3.894-3.756-7.12-8.372-7.12-4.614 0-8.357 3.157-8.357 7.045 0 3.895 3.742 7.05 8.356 7.05 3.83 0 7.062-2.188 8.05-5.15l-5.657.004zM147.384 15.398h-.653V11.1h1.64c1.015 0 1.518.376 1.518 1.222 0 .77-.482 1.103-1.115 1.184l1.22 1.893h-.725l-1.137-1.864h-.745v1.862zm.78-2.415c.55 0 1.04-.04 1.04-.7 0-.53-.48-.63-.932-.63h-.89v1.33h.78zM144.387 13.238c0-2.137 1.736-3.715 3.784-3.715 2.033 0 3.765 1.578 3.765 3.715 0 2.16-1.73 3.736-3.764 3.736-2.047 0-3.783-1.576-3.783-3.736zm3.784 3.116c1.69 0 3.015-1.32 3.015-3.115 0-1.763-1.326-3.096-3.014-3.096-1.702 0-3.032 1.333-3.032 3.095 0 1.793 1.33 3.114 3.033 3.114z"/></g></g></g></svg>