<svg xmlns="http://www.w3.org/2000/svg" width="110" height="100" viewBox="0 0 110 100"><path fill="#727174" d="M109.412 26h-.002l-8.432-3.47-.23-3.874-7.82-3.626-.175-4.737S66.79.003 54.8.003c-10.837 0-35.378 9.55-36.833 10.097l-.172 4.36-7.455 3.23-.23 4.18-9.522 3.905s-2.92 49.033 54.36 74.227C111.69 76.624 109.413 26 109.413 26zm-54.44 68h-.002C5.043 70 6.76 29.587 6.76 29.587l8.982-3.41.272-4.776 7.805-2.874.235-4.965s20.527-7.707 30.913-7.707c10.384 0 31.995 8.47 31.995 8.47l.22 4.733 7.313 2.84.29 4.158 9.19 3.757c0 .003-1.43 44.19-49.004 64.19z"/><path fill="#727174" d="M76.686 44.852c2.027-1.254 8.96-5.648 8.682-11.7-.363-7.882-9.162-13.076-9.162-13.076-7.03-4.398-15.81-6.527-18.87-6.903l.087 73.53c9.805-6.163 17.793-12.41 22.766-19.213 3.835-5.25 6.07-8.82 4.597-15.424-1.283-5.736-8.102-7.216-8.102-7.216M63.46 21.244s14.616 4.3 14.997 11.615c0 0 .838 7.75-14.945 10.447l-.053-22.063zM78.813 55.12c-.11 9.576-14.94 19.257-14.94 19.257V54.953s6.708-6.375 11.058-5.796c3.943.527 3.882 5.964 3.882 5.964M33.348 70.214C24.992 63.19 16.97 40.8 16.478 30.618c1.716-.62 4.758-1.352 6.446-1.448 0 0 2.292 17.78 10.896 30.125l2.128-4.288s-6.34-22.526-4.893-32.916c2.062-.728 4.82-1.295 6.63-1.574 0 0 1.198 32.38 8.808 44.54v-50.51c1.748-.83 4.403-1.373 6.48-1.54l.008 74.382s-7.727-5.41-14.494-23.55l-5.138 6.375zm41.298 26.7h-.994v-.7h2.828v.7h-1.004v2.978h-.83m5.364-1.41c-.016-.438-.03-.976-.03-1.51h-.01c-.12.47-.274.995-.42 1.425l-.442 1.438h-.65l-.393-1.42c-.12-.436-.24-.96-.332-1.44h-.012c-.015.497-.038 1.063-.06 1.522l-.07 1.398h-.77l.232-3.68h1.11l.358 1.228c.12.427.23.884.312 1.315h.02c.1-.428.226-.912.35-1.32l.386-1.224h1.09l.2 3.68h-.808l-.06-1.41z"/></svg>