<svg width="42" height="47" viewBox="0 0 42 47" xmlns="http://www.w3.org/2000/svg"><title>wbgames</title><g fill="none" fill-rule="evenodd"><g fill="#F7F8F8"><g><g><path d="M10.22 38.642S9.105 37.2 7.03 37.2c-2.076 0-3.366 1.82-3.366 3.618 0 1.797 1.24 3.822 3.62 3.822 0 0 1.695 0 2.81-1.113v-2.835l-2.86-.203v1.315l1.67.102v.835s-.43.53-1.494.53c-1.063 0-2.104-1.087-2.104-2.293 0-1.14.68-2.345 2.02-2.345 0 0 1.097-.015 1.906 1.02l.987-1.013zM14.313 39.318l-1.215-.095-3.17 5.296h1.557l.702-1.254 3.094.076.78 1.177h1.594l-3.34-5.202zm-1.633 2.96l1.035-1.67 1.035 1.766-2.07-.095zM17.806 39.736v4.784h1.518v-2.98l2.184 2.068 2.258-2.117v3.03h1.557v-4.956l-1.52.115-2.24 2.22-2.24-2.032-1.517-.132zM25.93 39.47v5.05h5.903v-1.31s-2.183.284-4.403.284v-1.12s2.562-.17 3.872-.38V40.78s-2.79.568-3.872.568v-1.1s2.582-.267 4.328-.778v-1.215s-2.81.816-5.827 1.216zM37.927 38.046l-.968 1.178s-.988-.684-1.86-.684c-.874 0-1.405.455-1.405.835 0 .38.38.57 1.385.797 1.007.23 3 .248 3.152 2.24.15 1.993-2.77 2.202-2.77 2.202s-2.014.21-3.456-1.442l.816-.93s1.044 1.024 2.41 1.024c1.367 0 1.216-.797 1.216-.797s.208-.59-1.956-.93c-2.164-.344-2.24-1.56-2.26-2.033-.018-.475.457-2.315 3.02-2.315 0 0 1.765.037 2.675.854z" id="Shape"/><g><path d="M30.035 25.697c1.454-1.987 2.3-3.337 1.74-5.838-.483-2.17-3.065-2.732-3.065-2.732.77-.475 3.393-2.138 3.288-4.43-.137-2.983-3.47-4.95-3.47-4.95-2.66-1.666-5.982-2.47-7.144-2.614l.034 27.836c3.713-2.332 6.734-4.698 8.617-7.273zm-.425-4.68c-.017 1.528-.982 3.234-2.872 5.07-1.397 1.36-2.812 2.287-2.825 2.298l-.147.095v-7.568l.03-.03c.095-.09 2.37-2.233 4.032-2.233.078 0 .156.004.232.014 1.557.208 1.55 2.33 1.55 2.352zM23.73 8.098c.012.003 1.41.418 2.804 1.166 1.89 1.017 2.88 2.132 2.94 3.316.004.027.077.777-.606 1.658-.903 1.162-2.627 1.968-5.13 2.395l-.107.02-.022-8.592.12.036zM41.287 9.906l-3.19-1.272-.087-1.444-2.96-1.362-.065-1.79S25.155.146 20.615.146c-4.1 0-13.393 3.617-13.94 3.823l-.067 1.65-2.823 1.225-.087 1.582-3.604 1.48s-.252 4.25 1.867 9.726V45.95c0 .246.2.447.45.447h36.993c.247 0 .448-.2.448-.448V18.427c1.6-4.862 1.437-8.522 1.437-8.522zm-38.96 1.33l.002-.068 3.4-1.238.103-1.78L8.787 7.07l.09-1.87.062-.026c.078-.03 7.833-2.92 11.74-2.92S32.75 5.44 32.828 5.47l.065.025.078 1.793 2.77 1.076.11 1.573 3.484 1.32v.073c-.003.042-.164 4.25-2.53 9.318-1.392 2.978-3.262 5.666-5.553 7.993-2.867 2.91-6.41 5.255-10.53 6.975l-.044.017-.04-.02c-4.325-2.05-7.976-4.605-10.856-7.597-2.306-2.393-4.125-5.07-5.408-7.953-1.14-2.567-1.637-4.83-1.852-6.272-.232-1.568-.195-2.543-.194-2.553zM39.09 45.64H2.72v-24.22c2.603 5.596 7.76 12.062 17.95 16.545 10.825-4.46 15.975-11.55 18.42-17.487v25.162zM8.28 19.72c.78 1.937 2.38 5.437 4.34 7.084l.077.064 1.9-2.356c2.53 6.688 5.434 8.778 5.463 8.8l.154.108-.003-28.454-.104.007c-.69.055-1.753.242-2.49.59l-.056.028v18.824C14.887 19.666 14.43 8.03 14.422 7.91l-.002-.11-.11.017c-.71.11-1.75.326-2.528.6l-.057.02-.008.06c-.527 3.778 1.673 11.848 1.845 12.464l-.715 1.44C9.72 17.808 8.842 11.247 8.834 11.18l-.012-.09-.093.003c-.65.036-1.823.32-2.468.553l-.07.025.004.074c.096 1.953.894 5.008 2.085 7.975z"/></g></g></g></g></g></svg>